<svg id="SvgjsSvg1374" width="1211.5999908447266" height="637.0000152587891" xmlns="http://www.w3.org/2000/svg" version="1.1" xmlns:xlink="http://www.w3.org/1999/xlink" xmlns:svgjs="http://svgjs.com/svgjs"><defs id="SvgjsDefs1375"><marker id="SvgjsMarker1442" markerWidth="16" markerHeight="12" refX="16" refY="6" viewBox="0 0 16 12" orient="auto" markerUnits="userSpaceOnUse" stroke-dasharray="0,0"><path id="SvgjsPath1443" d="M0,2 L14,6 L0,11 L0,2" fill="#323232" stroke="#323232" stroke-width="2"></path></marker><marker id="SvgjsMarker1446" markerWidth="16" markerHeight="12" refX="16" refY="6" viewBox="0 0 16 12" orient="auto" markerUnits="userSpaceOnUse" stroke-dasharray="0,0"><path id="SvgjsPath1447" d="M0,2 L14,6 L0,11 L0,2" fill="#323232" stroke="#323232" stroke-width="2"></path></marker><marker id="SvgjsMarker1450" markerWidth="16" markerHeight="12" refX="16" refY="6" viewBox="0 0 16 12" orient="auto" markerUnits="userSpaceOnUse" stroke-dasharray="0,0"><path id="SvgjsPath1451" d="M0,2 L14,6 L0,11 L0,2" fill="#323232" stroke="#323232" stroke-width="2"></path></marker><marker id="SvgjsMarker1552" markerWidth="16" markerHeight="12" refX="16" refY="6" viewBox="0 0 16 12" orient="auto" markerUnits="userSpaceOnUse" stroke-dasharray="0,0"><path id="SvgjsPath1553" d="M0,2 L14,6 L0,11 L0,2" fill="#323232" stroke="#323232" stroke-width="2"></path></marker><marker id="SvgjsMarker1556" markerWidth="16" markerHeight="12" refX="16" refY="6" viewBox="0 0 16 12" orient="auto" markerUnits="userSpaceOnUse" stroke-dasharray="0,0"><path id="SvgjsPath1557" d="M0,2 L14,6 L0,11 L0,2" fill="#323232" stroke="#323232" stroke-width="2"></path></marker><marker id="SvgjsMarker1560" markerWidth="16" markerHeight="12" refX="16" refY="6" viewBox="0 0 16 12" orient="auto" markerUnits="userSpaceOnUse" stroke-dasharray="0,0"><path id="SvgjsPath1561" d="M0,2 L14,6 L0,11 L0,2" fill="#323232" stroke="#323232" stroke-width="2"></path></marker><marker id="SvgjsMarker1580" markerWidth="16" markerHeight="12" refX="0" refY="6" viewBox="0 0 16 12" orient="auto" markerUnits="userSpaceOnUse" stroke-dasharray="0,0"><path id="SvgjsPath1581" d="M15,1.5 L2,6 L15,10.5" fill="#323232" stroke="#323232" stroke-width="2"></path></marker><marker id="SvgjsMarker1584" markerWidth="16" markerHeight="12" refX="0" refY="6" viewBox="0 0 16 12" orient="auto" markerUnits="userSpaceOnUse" stroke-dasharray="0,0"><path id="SvgjsPath1585" d="M15,1.5 L2,6 L15,10.5" fill="#323232" stroke="#323232" stroke-width="2"></path></marker><marker id="SvgjsMarker1586" markerWidth="16" markerHeight="12" refX="16" refY="6" viewBox="0 0 16 12" orient="auto" markerUnits="userSpaceOnUse" stroke-dasharray="0,0"><path id="SvgjsPath1587" d="M0,2 L14,6 L0,11 L0,2" fill="#323232" stroke="#323232" stroke-width="2"></path></marker><marker id="SvgjsMarker1590" markerWidth="16" markerHeight="12" refX="0" refY="6" viewBox="0 0 16 12" orient="auto" markerUnits="userSpaceOnUse" stroke-dasharray="0,0"><path id="SvgjsPath1591" d="M15,1.5 L2,6 L15,10.5" fill="#323232" stroke="#323232" stroke-width="2"></path></marker><marker id="SvgjsMarker1592" markerWidth="16" markerHeight="12" refX="16" refY="6" viewBox="0 0 16 12" orient="auto" markerUnits="userSpaceOnUse" stroke-dasharray="0,0"><path id="SvgjsPath1593" d="M0,2 L14,6 L0,11 L0,2" fill="#323232" stroke="#323232" stroke-width="2"></path></marker><marker id="SvgjsMarker1616" markerWidth="16" markerHeight="12" refX="16" refY="6" viewBox="0 0 16 12" orient="auto" markerUnits="userSpaceOnUse" stroke-dasharray="0,0"><path id="SvgjsPath1617" d="M0,2 L14,6 L0,11 L0,2" fill="#323232" stroke="#323232" stroke-width="2"></path></marker><marker id="SvgjsMarker1620" markerWidth="16" markerHeight="12" refX="16" refY="6" viewBox="0 0 16 12" orient="auto" markerUnits="userSpaceOnUse" stroke-dasharray="0,0"><path id="SvgjsPath1621" d="M0,2 L14,6 L0,11 L0,2" fill="#323232" stroke="#323232" stroke-width="2"></path></marker><marker id="SvgjsMarker1624" markerWidth="16" markerHeight="12" refX="16" refY="6" viewBox="0 0 16 12" orient="auto" markerUnits="userSpaceOnUse" stroke-dasharray="0,0"><path id="SvgjsPath1625" d="M0,2 L14,6 L0,11 L0,2" fill="#323232" stroke="#323232" stroke-width="2"></path></marker><marker id="SvgjsMarker1632" markerWidth="16" markerHeight="12" refX="16" refY="6" viewBox="0 0 16 12" orient="auto" markerUnits="userSpaceOnUse" stroke-dasharray="0,0"><path id="SvgjsPath1633" d="M0,2 L14,6 L0,11 L0,2" fill="#323232" stroke="#323232" stroke-width="2"></path></marker><marker id="SvgjsMarker1666" markerWidth="16" markerHeight="12" refX="16" refY="6" viewBox="0 0 16 12" orient="auto" markerUnits="userSpaceOnUse" stroke-dasharray="0,0"><path id="SvgjsPath1667" d="M0,2 L14,6 L0,11 L0,2" fill="#323232" stroke="#323232" stroke-width="2"></path></marker><marker id="SvgjsMarker1670" markerWidth="16" markerHeight="12" refX="16" refY="6" viewBox="0 0 16 12" orient="auto" markerUnits="userSpaceOnUse" stroke-dasharray="0,0"><path id="SvgjsPath1671" d="M0,2 L14,6 L0,11 L0,2" fill="#323232" stroke="#323232" stroke-width="2"></path></marker><marker id="SvgjsMarker1698" markerWidth="16" markerHeight="12" refX="16" refY="6" viewBox="0 0 16 12" orient="auto" markerUnits="userSpaceOnUse" stroke-dasharray="0,0"><path id="SvgjsPath1699" d="M0,2 L14,6 L0,11 L0,2" fill="#323232" stroke="#323232" stroke-width="2"></path></marker><marker id="SvgjsMarker1702" markerWidth="16" markerHeight="12" refX="0" refY="6" viewBox="0 0 16 12" orient="auto" markerUnits="userSpaceOnUse" stroke-dasharray="0,0"><path id="SvgjsPath1703" d="M15,1.5 L2,6 L15,10.5" fill="#323232" stroke="#323232" stroke-width="2"></path></marker><marker id="SvgjsMarker1704" markerWidth="16" markerHeight="12" refX="16" refY="6" viewBox="0 0 16 12" orient="auto" markerUnits="userSpaceOnUse" stroke-dasharray="0,0"><path id="SvgjsPath1705" d="M0,2 L14,6 L0,11 L0,2" fill="#323232" stroke="#323232" stroke-width="2"></path></marker><marker id="SvgjsMarker1708" markerWidth="16" markerHeight="12" refX="0" refY="6" viewBox="0 0 16 12" orient="auto" markerUnits="userSpaceOnUse" stroke-dasharray="0,0"><path id="SvgjsPath1709" d="M15,1.5 L2,6 L15,10.5" fill="#323232" stroke="#323232" stroke-width="2"></path></marker><marker id="SvgjsMarker1710" markerWidth="16" markerHeight="12" refX="16" refY="6" viewBox="0 0 16 12" orient="auto" markerUnits="userSpaceOnUse" stroke-dasharray="0,0"><path id="SvgjsPath1711" d="M0,2 L14,6 L0,11 L0,2" fill="#323232" stroke="#323232" stroke-width="2"></path></marker><marker id="SvgjsMarker1714" markerWidth="16" markerHeight="12" refX="0" refY="6" viewBox="0 0 16 12" orient="auto" markerUnits="userSpaceOnUse" stroke-dasharray="0,0"><path id="SvgjsPath1715" d="M15,1.5 L2,6 L15,10.5" fill="#323232" stroke="#323232" stroke-width="2"></path></marker><marker id="SvgjsMarker1716" markerWidth="16" markerHeight="12" refX="16" refY="6" viewBox="0 0 16 12" orient="auto" markerUnits="userSpaceOnUse" stroke-dasharray="0,0"><path id="SvgjsPath1717" d="M0,2 L14,6 L0,11 L0,2" fill="#323232" stroke="#323232" stroke-width="2"></path></marker></defs><g id="SvgjsG1376" transform="translate(689.5999908447266,24.99999237060547)"><path id="SvgjsPath1377" d="M 0 4Q 0 0 4 0L 492.40000915527344 0Q 496.40000915527344 0 496.40000915527344 4L 496.40000915527344 262Q 496.40000915527344 266 492.40000915527344 266L 4 266Q 0 266 0 262Z" stroke-dasharray="3,4" stroke="rgba(50,50,50,1)" stroke-width="2" fill-opacity="1" fill="#ffffff"></path><g id="SvgjsG1378"><text id="SvgjsText1379" font-family="微软雅黑" text-anchor="middle" font-size="13px" width="477px" fill="#323232" font-weight="400" align="middle" lineHeight="125%" anchor="middle" family="微软雅黑" size="13px" weight="400" font-style="" opacity="1" y="123.375" transform="rotate(0)"></text></g></g><g id="SvgjsG1380" transform="translate(739,142.99999237060547)"><path id="SvgjsPath1381" d="M 0 4Q 0 0 4 0L 409 0Q 413 0 413 4L 413 131Q 413 135 409 135L 4 135Q 0 135 0 131Z" stroke="rgba(50,50,50,1)" stroke-width="2" fill-opacity="1" fill="#ffffff"></path><g id="SvgjsG1382"><text id="SvgjsText1383" font-family="微软雅黑" text-anchor="middle" font-size="13px" width="393px" fill="#323232" font-weight="400" align="middle" lineHeight="125%" anchor="middle" family="微软雅黑" size="13px" weight="400" font-style="" opacity="1" y="57.875" transform="rotate(0)"></text></g></g><g id="SvgjsG1384" transform="translate(692.5,321.99999237060547)"><path id="SvgjsPath1385" d="M 0 4Q 0 0 4 0L 491 0Q 495 0 495 4L 495 285.5Q 495 289.5 491 289.5L 4 289.5Q 0 289.5 0 285.5Z" stroke-dasharray="3,4" stroke="rgba(50,50,50,1)" stroke-width="2" fill-opacity="1" fill="#ffffff"></path><g id="SvgjsG1386"><text id="SvgjsText1387" font-family="微软雅黑" text-anchor="middle" font-size="13px" width="475px" fill="#323232" font-weight="400" align="middle" lineHeight="125%" anchor="middle" family="微软雅黑" size="13px" weight="400" font-style="" opacity="1" y="135.125" transform="rotate(0)"></text></g></g><g id="SvgjsG1388" transform="translate(25,24.99999237060547)"><path id="SvgjsPath1389" d="M 0 4Q 0 0 4 0L 456 0Q 460 0 460 4L 460 278Q 460 282 456 282L 4 282Q 0 282 0 278Z" stroke-dasharray="3,4" stroke="rgba(50,50,50,1)" stroke-width="2" fill-opacity="1" fill="#ffffff"></path><g id="SvgjsG1390"><text id="SvgjsText1391" font-family="微软雅黑" text-anchor="middle" font-size="13px" width="440px" fill="#323232" font-weight="400" align="middle" lineHeight="125%" anchor="middle" family="微软雅黑" size="13px" weight="400" font-style="" opacity="1" y="131.375" transform="rotate(0)"></text></g></g><g id="SvgjsG1392" transform="translate(25,325.99999237060547)"><path id="SvgjsPath1393" d="M 0 4Q 0 0 4 0L 456 0Q 460 0 460 4L 460 282Q 460 286 456 286L 4 286Q 0 286 0 282Z" stroke-dasharray="3,4" stroke="rgba(50,50,50,1)" stroke-width="2" fill-opacity="1" fill="#ffffff"></path><g id="SvgjsG1394"><text id="SvgjsText1395" font-family="微软雅黑" text-anchor="middle" font-size="13px" width="440px" fill="#323232" font-weight="400" align="middle" lineHeight="125%" anchor="middle" family="微软雅黑" size="13px" weight="400" font-style="" opacity="1" y="133.375" transform="rotate(0)"></text></g></g><g id="SvgjsG1396" transform="translate(735,390.74999237060547)"><path id="SvgjsPath1397" d="M 0 4Q 0 0 4 0L 406 0Q 410 0 410 4L 410 74Q 410 78 406 78L 4 78Q 0 78 0 74Z" stroke="rgba(50,50,50,1)" stroke-width="2" fill-opacity="1" fill="#ffffff"></path><g id="SvgjsG1398"><text id="SvgjsText1399" font-family="微软雅黑" text-anchor="middle" font-size="13px" width="390px" fill="#323232" font-weight="400" align="middle" lineHeight="125%" anchor="middle" family="微软雅黑" size="13px" weight="400" font-style="" opacity="1" y="29.375" transform="rotate(0)"></text></g></g><g id="SvgjsG1400" transform="translate(69,169.99999237060547)"><path id="SvgjsPath1401" d="M 0 0L 93.5 0L 93.5 81L 0 81Z" stroke="rgba(50,50,50,1)" stroke-width="2" fill-opacity="1" fill="#ffffcc"></path><g id="SvgjsG1402"><text id="SvgjsText1403" font-family="微软雅黑" text-anchor="middle" font-size="13px" width="74px" fill="#323232" font-weight="400" align="middle" lineHeight="125%" anchor="middle" family="微软雅黑" size="13px" weight="400" font-style="" opacity="1" y="30.875" transform="rotate(0)"><tspan id="SvgjsTspan1404" dy="16" x="47"><tspan id="SvgjsTspan1405" style="text-decoration:;">元数据</tspan></tspan></text></g></g><g id="SvgjsG1406" transform="translate(162,169.99999237060547)"><path id="SvgjsPath1407" d="M 0 0L 99 0L 99 81L 0 81Z" stroke="rgba(50,50,50,1)" stroke-width="2" fill-opacity="1" fill="#ffffcc"></path><g id="SvgjsG1408"><text id="SvgjsText1409" font-family="微软雅黑" text-anchor="middle" font-size="13px" width="79px" fill="#323232" font-weight="400" align="middle" lineHeight="125%" anchor="middle" family="微软雅黑" size="13px" weight="400" font-style="" opacity="1" y="30.875" transform="rotate(0)"><tspan id="SvgjsTspan1410" dy="16" x="49.5"><tspan id="SvgjsTspan1411" style="text-decoration:;">业务数据</tspan></tspan></text></g></g><g id="SvgjsG1412" transform="translate(261.375,169.99999237060547)"><path id="SvgjsPath1413" d="M 0 0L 92 0L 92 81L 0 81Z" stroke="rgba(50,50,50,1)" stroke-width="2" fill-opacity="1" fill="#ffffcc"></path><g id="SvgjsG1414"><text id="SvgjsText1415" font-family="微软雅黑" text-anchor="middle" font-size="13px" width="72px" fill="#323232" font-weight="400" align="middle" lineHeight="125%" anchor="middle" family="微软雅黑" size="13px" weight="400" font-style="" opacity="1" y="30.875" transform="rotate(0)"><tspan id="SvgjsTspan1416" dy="16" x="46"><tspan id="SvgjsTspan1417" style="text-decoration:;">监控数据</tspan></tspan></text></g></g><g id="SvgjsG1418" transform="translate(67.75,513.9999923706055)"><path id="SvgjsPath1419" d="M 0 0L 94.5 0L 94.5 40L 0 40Z" stroke="rgba(50,50,50,1)" stroke-width="2" fill-opacity="1" fill="#e6ffcc"></path><g id="SvgjsG1420"><text id="SvgjsText1421" font-family="微软雅黑" text-anchor="middle" font-size="13px" width="75px" fill="#323232" font-weight="400" align="middle" lineHeight="125%" anchor="middle" family="微软雅黑" size="13px" weight="400" font-style="" opacity="1" y="2.375" transform="rotate(0)"><tspan id="SvgjsTspan1422" dy="16" x="47.5"><tspan id="SvgjsTspan1423" style="text-decoration:;">SDK/REST </tspan></tspan><tspan id="SvgjsTspan1424" dy="16" x="47.5"><tspan id="SvgjsTspan1425" style="text-decoration:;">API</tspan></tspan></text></g></g><g id="SvgjsG1426" transform="translate(162.25,466.99999237060547)"><path id="SvgjsPath1427" d="M 0 0L 98.5 0L 98.5 47L 0 47Z" stroke="rgba(50,50,50,1)" stroke-width="2" fill-opacity="1" fill="#e6ffcc"></path><g id="SvgjsG1428"><text id="SvgjsText1429" font-family="微软雅黑" text-anchor="middle" font-size="13px" width="79px" fill="#323232" font-weight="400" align="middle" lineHeight="125%" anchor="middle" family="微软雅黑" size="13px" weight="400" font-style="" opacity="1" y="13.875" transform="rotate(0)"><tspan id="SvgjsTspan1430" dy="16" x="49.5"><tspan id="SvgjsTspan1431" style="text-decoration:;">CDC组件</tspan></tspan></text></g></g><g id="SvgjsG1432" transform="translate(260.75,426.99999237060547)"><path id="SvgjsPath1433" d="M 0 0L 93.25 0L 93.25 40L 0 40Z" stroke="rgba(50,50,50,1)" stroke-width="2" fill-opacity="1" fill="#e6ffcc"></path><g id="SvgjsG1434"><text id="SvgjsText1435" font-family="微软雅黑" text-anchor="middle" font-size="13px" width="74px" fill="#323232" font-weight="400" align="middle" lineHeight="125%" anchor="middle" family="微软雅黑" size="13px" weight="400" font-style="" opacity="1" y="2.375" transform="rotate(0)"><tspan id="SvgjsTspan1436" dy="16" x="47"><tspan id="SvgjsTspan1437" style="text-decoration:;">SDK/</tspan></tspan><tspan id="SvgjsTspan1438" dy="16" x="47"><tspan id="SvgjsTspan1439" style="text-decoration:;">Agent</tspan></tspan></text></g></g><g id="SvgjsG1440"><path id="SvgjsPath1441" d="M115 250.99999237060547L115 382.49999237060547L115 382.49999237060547L115 513.9999923706055" stroke="#323232" stroke-width="2" fill="none" marker-end="url(#SvgjsMarker1442)"></path></g><g id="SvgjsG1444"><path id="SvgjsPath1445" d="M211.5 250.99999237060547L211.5 358.99999237060547L211.5 358.99999237060547L211.5 466.99999237060547" stroke="#323232" stroke-width="2" fill="none" marker-end="url(#SvgjsMarker1446)"></path></g><g id="SvgjsG1448"><path id="SvgjsPath1449" d="M307.375 250.99999237060547L307.375 297.99999237060547L307.375 297.99999237060547L307.375 344.99999237060547" stroke="#323232" stroke-width="2" fill="none" marker-end="url(#SvgjsMarker1450)"></path></g><g id="SvgjsG1452" transform="translate(735,488.49999237060547)"><path id="SvgjsPath1453" d="M 0 4Q 0 0 4 0L 406 0Q 410 0 410 4L 410 74Q 410 78 406 78L 4 78Q 0 78 0 74Z" stroke="rgba(50,50,50,1)" stroke-width="2" fill-opacity="1" fill="#ffffff"></path><g id="SvgjsG1454"><text id="SvgjsText1455" font-family="微软雅黑" text-anchor="middle" font-size="13px" width="390px" fill="#323232" font-weight="400" align="middle" lineHeight="125%" anchor="middle" family="微软雅黑" size="13px" weight="400" font-style="" opacity="1" y="29.375" transform="rotate(0)"></text></g></g><g id="SvgjsG1456" transform="translate(253,259.99999237060547)"><path id="SvgjsPath1457" d="M 0 0L 120 0L 120 40L 0 40Z" stroke="none" fill="none"></path><g id="SvgjsG1458"><text id="SvgjsText1459" font-family="微软雅黑" text-anchor="middle" font-size="13px" width="120px" fill="#323232" font-weight="400" align="middle" lineHeight="125%" anchor="middle" family="微软雅黑" size="13px" weight="400" font-style="" opacity="1" y="10.375" transform="rotate(0)"><tspan id="SvgjsTspan1460" dy="16" x="60"><tspan id="SvgjsTspan1461" style="text-decoration:;">log/metric/trace</tspan></tspan></text></g></g><g id="SvgjsG1462" transform="translate(148.5,259.99999237060547)"><path id="SvgjsPath1463" d="M 0 0L 120 0L 120 40L 0 40Z" stroke="none" fill="none"></path><g id="SvgjsG1464"><text id="SvgjsText1465" font-family="微软雅黑" text-anchor="middle" font-size="13px" width="120px" fill="#323232" font-weight="400" align="middle" lineHeight="125%" anchor="middle" family="微软雅黑" size="13px" weight="400" font-style="" opacity="1" y="10.375" transform="rotate(0)"><tspan id="SvgjsTspan1466" dy="16" x="60"><tspan id="SvgjsTspan1467" style="text-decoration:;">binlog</tspan></tspan></text></g></g><g id="SvgjsG1468" transform="translate(55,259.99999237060547)"><path id="SvgjsPath1469" d="M 0 0L 120 0L 120 40L 0 40Z" stroke="none" fill="none"></path><g id="SvgjsG1470"><text id="SvgjsText1471" font-family="微软雅黑" text-anchor="middle" font-size="13px" width="120px" fill="#323232" font-weight="400" align="middle" lineHeight="125%" anchor="middle" family="微软雅黑" size="13px" weight="400" font-style="" opacity="1" y="10.375" transform="rotate(0)"><tspan id="SvgjsTspan1472" dy="16" x="60"><tspan id="SvgjsTspan1473" style="text-decoration:;">db表</tspan></tspan></text></g></g><g id="SvgjsG1474" transform="translate(758,508.99999237060547)"><path id="SvgjsPath1475" d="M 0 0L 94 0L 94 42L 0 42Z" stroke="rgba(50,50,50,1)" stroke-width="2" fill-opacity="1" fill="#ccffff"></path><g id="SvgjsG1476"><text id="SvgjsText1477" font-family="微软雅黑" text-anchor="middle" font-size="13px" width="74px" fill="#323232" font-weight="400" align="middle" lineHeight="125%" anchor="middle" family="微软雅黑" size="13px" weight="400" font-style="" opacity="1" y="11.375" transform="rotate(0)"><tspan id="SvgjsTspan1478" dy="16" x="47"><tspan id="SvgjsTspan1479" style="text-decoration:;">离线存储</tspan></tspan></text></g></g><g id="SvgjsG1480" transform="translate(753.5,408.49999237060547)"><path id="SvgjsPath1481" d="M 0 0L 103 0L 103 41L 0 41Z" stroke="rgba(50,50,50,1)" stroke-width="2" fill-opacity="1" fill="#ccffff"></path><g id="SvgjsG1482"><text id="SvgjsText1483" font-family="微软雅黑" text-anchor="middle" font-size="13px" width="83px" fill="#323232" font-weight="400" align="middle" lineHeight="125%" anchor="middle" family="微软雅黑" size="13px" weight="400" font-style="" opacity="1" y="10.875" transform="rotate(0)"><tspan id="SvgjsTspan1484" dy="16" x="51.5"><tspan id="SvgjsTspan1485" style="text-decoration:;">流计算</tspan></tspan></text></g></g><g id="SvgjsG1486" transform="translate(890,508.99999237060547)"><path id="SvgjsPath1487" d="M 0 0L 100 0L 100 42L 0 42Z" stroke="rgba(50,50,50,1)" stroke-width="2" fill-opacity="1" fill="#ccffff"></path><g id="SvgjsG1488"><text id="SvgjsText1489" font-family="微软雅黑" text-anchor="middle" font-size="13px" width="80px" fill="#323232" font-weight="400" align="middle" lineHeight="125%" anchor="middle" family="微软雅黑" size="13px" weight="400" font-style="" opacity="1" y="11.375" transform="rotate(0)"><tspan id="SvgjsTspan1490" dy="16" x="50"><tspan id="SvgjsTspan1491" style="text-decoration:;">离线计算</tspan></tspan></text></g></g><g id="SvgjsG1492" transform="translate(1039.5,406.99999237060547)"><path id="SvgjsPath1493" d="M 0 0L 48.5 0L 48.5 144L 0 144Z" stroke="rgba(50,50,50,1)" stroke-width="2" fill-opacity="1" fill="#ccffff"></path><g id="SvgjsG1494"><text id="SvgjsText1495" font-family="微软雅黑" text-anchor="middle" font-size="13px" width="29px" fill="#323232" font-weight="400" align="middle" lineHeight="125%" anchor="middle" family="微软雅黑" size="13px" weight="400" font-style="" opacity="1" y="46.375" transform="rotate(0)"><tspan id="SvgjsTspan1496" dy="16" x="24.5"><tspan id="SvgjsTspan1497" style="text-decoration:;">AI</tspan></tspan><tspan id="SvgjsTspan1498" dy="16" x="24.5"><tspan id="SvgjsTspan1499" style="text-decoration:;">平</tspan></tspan><tspan id="SvgjsTspan1500" dy="16" x="24.5"><tspan id="SvgjsTspan1501" style="text-decoration:;">台</tspan></tspan></text></g></g><g id="SvgjsG1502" transform="translate(69,80.99999237060547)"><path id="SvgjsPath1503" d="M 0 0L 285 0L 285 39L 0 39Z" stroke="rgba(50,50,50,1)" stroke-width="2" fill-opacity="1" fill="#ffffcc"></path><g id="SvgjsG1504"><text id="SvgjsText1505" font-family="微软雅黑" text-anchor="middle" font-size="13px" width="265px" fill="#323232" font-weight="400" align="middle" lineHeight="125%" anchor="middle" family="微软雅黑" size="13px" weight="400" font-style="" opacity="1" y="9.875" transform="rotate(0)"><tspan id="SvgjsTspan1506" dy="16" x="142.5"><tspan id="SvgjsTspan1507" style="text-decoration:;">应用/平台/系统/硬件</tspan></tspan></text></g></g><g id="SvgjsG1508" transform="translate(165.5,31.99999237060547)"><path id="SvgjsPath1509" d="M 0 0L 120 0L 120 40L 0 40Z" stroke="none" fill="none"></path><g id="SvgjsG1510"><text id="SvgjsText1511" font-family="微软雅黑" text-anchor="middle" font-size="26px" width="120px" fill="#323232" font-weight="700" align="middle" lineHeight="125%" anchor="middle" family="微软雅黑" size="26px" weight="700" font-style="" opacity="1" y="-1.25" transform="rotate(0)"><tspan id="SvgjsTspan1512" dy="32" x="60"><tspan id="SvgjsTspan1513" style="text-decoration:;">生产</tspan></tspan></text></g></g><g id="SvgjsG1514" transform="translate(151.5,571.9999923706055)"><path id="SvgjsPath1515" d="M 0 0L 120 0L 120 40L 0 40Z" stroke="none" fill="none"></path><g id="SvgjsG1516"><text id="SvgjsText1517" font-family="微软雅黑" text-anchor="middle" font-size="26px" width="120px" fill="#323232" font-weight="700" align="middle" lineHeight="125%" anchor="middle" family="微软雅黑" size="26px" weight="700" font-style="" opacity="1" y="-1.25" transform="rotate(0)"><tspan id="SvgjsTspan1518" dy="32" x="60"><tspan id="SvgjsTspan1519" style="text-decoration:;">采集</tspan></tspan></text></g></g><g id="SvgjsG1520" transform="translate(879,568.9999923706055)"><path id="SvgjsPath1521" d="M 0 0L 156.5 0L 156.5 43L 0 43Z" stroke="none" fill="none"></path><g id="SvgjsG1522"><text id="SvgjsText1523" font-family="微软雅黑" text-anchor="middle" font-size="26px" width="157px" fill="#323232" font-weight="700" align="middle" lineHeight="125%" anchor="middle" family="微软雅黑" size="26px" weight="700" font-style="" opacity="1" y="0.25" transform="rotate(0)"><tspan id="SvgjsTspan1524" dy="32" x="78.5"><tspan id="SvgjsTspan1525" style="text-decoration:;">存储与计算</tspan></tspan></text></g></g><g id="SvgjsG1526" transform="translate(888.5,24.99999237060547)"><path id="SvgjsPath1527" d="M 0 0L 120 0L 120 40L 0 40Z" stroke="none" fill="none"></path><g id="SvgjsG1528"><text id="SvgjsText1529" font-family="微软雅黑" text-anchor="middle" font-size="26px" width="120px" fill="#323232" font-weight="700" align="middle" lineHeight="125%" anchor="middle" family="微软雅黑" size="26px" weight="700" font-style="" opacity="1" y="-1.25" transform="rotate(0)"><tspan id="SvgjsTspan1530" dy="32" x="60"><tspan id="SvgjsTspan1531" style="text-decoration:;">消费</tspan></tspan></text></g></g><g id="SvgjsG1532" transform="translate(767.5,80.99999237060547)"><path id="SvgjsPath1533" d="M 0 0L 101 0L 101 39L 0 39Z" stroke="rgba(50,50,50,1)" stroke-width="2" fill-opacity="1" fill="#ffe6cc"></path><g id="SvgjsG1534"><text id="SvgjsText1535" font-family="微软雅黑" text-anchor="middle" font-size="13px" width="81px" fill="#323232" font-weight="400" align="middle" lineHeight="125%" anchor="middle" family="微软雅黑" size="13px" weight="400" font-style="" opacity="1" y="9.875" transform="rotate(0)"><tspan id="SvgjsTspan1536" dy="16" x="50.5"><tspan id="SvgjsTspan1537" style="text-decoration:;">应用</tspan></tspan></text></g></g><g id="SvgjsG1538" transform="translate(894.5,80.99999237060547)"><path id="SvgjsPath1539" d="M 0 0L 102 0L 102 39L 0 39Z" stroke="rgba(50,50,50,1)" stroke-width="2" fill-opacity="1" fill="#ffe6cc"></path><g id="SvgjsG1540"><text id="SvgjsText1541" font-family="微软雅黑" text-anchor="middle" font-size="13px" width="82px" fill="#323232" font-weight="400" align="middle" lineHeight="125%" anchor="middle" family="微软雅黑" size="13px" weight="400" font-style="" opacity="1" y="9.875" transform="rotate(0)"><tspan id="SvgjsTspan1542" dy="16" x="51"><tspan id="SvgjsTspan1543" style="text-decoration:;">商业分析</tspan></tspan></text></g></g><g id="SvgjsG1544" transform="translate(1026,80.99999237060547)"><path id="SvgjsPath1545" d="M 0 0L 97 0L 97 39L 0 39Z" stroke="rgba(50,50,50,1)" stroke-width="2" fill-opacity="1" fill="#ffe6cc"></path><g id="SvgjsG1546"><text id="SvgjsText1547" font-family="微软雅黑" text-anchor="middle" font-size="13px" width="77px" fill="#323232" font-weight="400" align="middle" lineHeight="125%" anchor="middle" family="微软雅黑" size="13px" weight="400" font-style="" opacity="1" y="9.875" transform="rotate(0)"><tspan id="SvgjsTspan1548" dy="16" x="48.5"><tspan id="SvgjsTspan1549" style="text-decoration:;">服务质量</tspan></tspan></text></g></g><g id="SvgjsG1550"><path id="SvgjsPath1551" d="M211.5 119.99999237060547L211.5 144.99999237060547L211.875 144.99999237060547L211.875 169.99999237060547" stroke="#323232" stroke-width="2" fill="none" marker-end="url(#SvgjsMarker1552)"></path></g><g id="SvgjsG1554"><path id="SvgjsPath1555" d="M211.5 119.99999237060547L211.5 144.99999237060547L307.375 144.99999237060547L307.375 169.99999237060547" stroke="#323232" stroke-width="2" fill="none" marker-end="url(#SvgjsMarker1556)"></path></g><g id="SvgjsG1558"><path id="SvgjsPath1559" d="M211.5 119.99999237060547L211.5 144.99999237060547L104 144.99999237060547L104 169.99999237060547" stroke="#323232" stroke-width="2" fill="none" marker-end="url(#SvgjsMarker1560)"></path></g><g id="SvgjsG1562" transform="translate(408,390.74999237060547)"><path id="SvgjsPath1563" d="M 0 0L 43 0L 43 199.5L 0 199.5Z" stroke="rgba(50,50,50,1)" stroke-width="2" fill-opacity="1" fill="#e6ffcc"></path><g id="SvgjsG1564"><text id="SvgjsText1565" font-family="微软雅黑" text-anchor="middle" font-size="13px" width="23px" fill="#323232" font-weight="400" align="middle" lineHeight="125%" anchor="middle" family="微软雅黑" size="13px" weight="400" font-style="" opacity="1" y="50.125" transform="rotate(0)"><tspan id="SvgjsTspan1566" dy="16" x="21.5"><tspan id="SvgjsTspan1567" style="text-decoration:;">统</tspan></tspan><tspan id="SvgjsTspan1568" dy="16" x="21.5"><tspan id="SvgjsTspan1569" style="text-decoration:;">一</tspan></tspan><tspan id="SvgjsTspan1570" dy="16" x="21.5"><tspan id="SvgjsTspan1571" style="text-decoration:;">采</tspan></tspan><tspan id="SvgjsTspan1572" dy="16" x="21.5"><tspan id="SvgjsTspan1573" style="text-decoration:;">集</tspan></tspan><tspan id="SvgjsTspan1574" dy="16" x="21.5"><tspan id="SvgjsTspan1575" style="text-decoration:;">平</tspan></tspan><tspan id="SvgjsTspan1576" dy="16" x="21.5"><tspan id="SvgjsTspan1577" style="text-decoration:;">台</tspan></tspan></text></g></g><g id="SvgjsG1578"><path id="SvgjsPath1579" d="M162.25 533.9999923706055L381.125 533.9999923706055L381.125 490.49999237060547L408 490.49999237060547" stroke="#323232" stroke-width="2" fill="none" marker-start="url(#SvgjsMarker1580)"></path></g><g id="SvgjsG1582"><path id="SvgjsPath1583" d="M354 446.99999237060547L381 446.99999237060547L381 490.49999237060547L408 490.49999237060547" stroke="#323232" stroke-width="2" fill="none" marker-start="url(#SvgjsMarker1584)" marker-end="url(#SvgjsMarker1586)"></path></g><g id="SvgjsG1588"><path id="SvgjsPath1589" d="M260.75 490.49999237060547L334.375 490.49999237060547L334.375 490.49999237060547L408 490.49999237060547" stroke="#323232" stroke-width="2" fill="none" marker-start="url(#SvgjsMarker1590)" marker-end="url(#SvgjsMarker1592)"></path></g><g id="SvgjsG1594" transform="translate(735,336.99999237060547)"><path id="SvgjsPath1595" d="M 0 0L 410 0L 410 30L 0 30Z" stroke="rgba(50,50,50,1)" stroke-width="2" fill-opacity="1" fill="#ccffff"></path><g id="SvgjsG1596"><text id="SvgjsText1597" font-family="微软雅黑" text-anchor="middle" font-size="13px" width="390px" fill="#323232" font-weight="400" align="middle" lineHeight="125%" anchor="middle" family="微软雅黑" size="13px" weight="400" font-style="" opacity="1" y="5.375" transform="rotate(0)"><tspan id="SvgjsTspan1598" dy="16" x="205"><tspan id="SvgjsTspan1599" style="text-decoration:;">统一数据开发平台</tspan></tspan></text></g></g><g id="SvgjsG1600" transform="translate(543,439.99999237060547)"><path id="SvgjsPath1601" d="M 0 0L 84 0L 84 40L 0 40Z" stroke="none" fill="none"></path><g id="SvgjsG1602"><text id="SvgjsText1603" font-family="微软雅黑" text-anchor="middle" font-size="13px" width="84px" fill="#323232" font-weight="400" align="middle" lineHeight="125%" anchor="middle" family="微软雅黑" size="13px" weight="400" font-style="" opacity="1" y="10.375" transform="rotate(0)"><tspan id="SvgjsTspan1604" dy="16" x="42"><tspan id="SvgjsTspan1605" style="text-decoration:;">数据总线</tspan></tspan></text></g></g><g id="SvgjsG1606" transform="translate(228.5625,344.99999237060547)"><path id="SvgjsPath1607" d="M 0 0L 157.625 0L 157.625 34L 0 34Z" stroke="rgba(50,50,50,1)" stroke-width="2" fill-opacity="1" fill="#e6ffcc"></path><g id="SvgjsG1608"><text id="SvgjsText1609" font-family="微软雅黑" text-anchor="middle" font-size="13px" width="138px" fill="#323232" font-weight="400" align="middle" lineHeight="125%" anchor="middle" family="微软雅黑" size="13px" weight="400" font-style="" opacity="1" y="-0.625" transform="rotate(0)"><tspan id="SvgjsTspan1610" dy="16" x="79"><tspan id="SvgjsTspan1611" style="text-decoration:;">埋点/schema</tspan></tspan><tspan id="SvgjsTspan1612" dy="16" x="79"><tspan id="SvgjsTspan1613" style="text-decoration:;font-size: inherit;">管理平台</tspan></tspan></text></g></g><g id="SvgjsG1614"><path id="SvgjsPath1615" d="M307.375 378.99999237060547L307.375 402.99999237060547L307.375 402.99999237060547L307.375 426.99999237060547" stroke="#323232" stroke-width="2" fill="none" marker-end="url(#SvgjsMarker1616)"></path></g><g id="SvgjsG1618"><path id="SvgjsPath1619" d="M589.5 324.99999237060547L589.5 157.99999237060547L690.3543981534732 157.99999237060547" stroke="#323232" stroke-width="2" fill="none" marker-end="url(#SvgjsMarker1620)"></path></g><g id="SvgjsG1622"><path id="SvgjsPath1623" d="M940 321.99999237060547L940 306.49999237060547L938.5544027311099 306.49999237060547L938.5544027311099 290.99999237060547" stroke="#323232" stroke-width="2" fill="none" marker-end="url(#SvgjsMarker1624)"></path></g><g id="SvgjsG1626" transform="translate(517,325.99999237060547)"><path id="SvgjsPath1627" d="M 0 4Q 0 0 4 0L 139 0Q 143 0 143 4L 143 282Q 143 286 139 286L 4 286Q 0 286 0 282Z" stroke-dasharray="3,4" stroke="rgba(50,50,50,1)" stroke-width="2" fill-opacity="1" fill="#ffffff"></path><g id="SvgjsG1628"><text id="SvgjsText1629" font-family="微软雅黑" text-anchor="middle" font-size="13px" width="123px" fill="#323232" font-weight="400" align="middle" lineHeight="125%" anchor="middle" family="微软雅黑" size="13px" weight="400" font-style="" opacity="1" y="133.375" transform="rotate(0)"></text></g></g><g id="SvgjsG1630"><path id="SvgjsPath1631" d="M485 468.99999237060547L501 468.99999237060547L501 468.99999237060547L517 468.99999237060547" stroke="#323232" stroke-width="2" fill="none" marker-end="url(#SvgjsMarker1632)"></path></g><g id="SvgjsG1634" transform="translate(531,321.99999237060547)"><path id="SvgjsPath1635" d="M 0 0L 120 0L 120 40L 0 40Z" stroke="none" fill="none"></path><g id="SvgjsG1636"><text id="SvgjsText1637" font-family="微软雅黑" text-anchor="middle" font-size="18px" width="120px" fill="#323232" font-weight="700" align="middle" lineHeight="125%" anchor="middle" family="微软雅黑" size="18px" weight="700" font-style="" opacity="1" y="6.75" transform="rotate(0)"><tspan id="SvgjsTspan1638" dy="22" x="60"><tspan id="SvgjsTspan1639" style="text-decoration:;">数据总线</tspan></tspan></text></g></g><g id="SvgjsG1640" transform="translate(540.5,372.99999237060547)"><path id="SvgjsPath1641" d="M 0 0L 101 0L 101 39L 0 39Z" stroke="rgba(50,50,50,1)" stroke-width="2" fill-opacity="1" fill="#ffcce6"></path><g id="SvgjsG1642"><text id="SvgjsText1643" font-family="微软雅黑" text-anchor="middle" font-size="13px" width="81px" fill="#323232" font-weight="400" align="middle" lineHeight="125%" anchor="middle" family="微软雅黑" size="13px" weight="400" font-style="" opacity="1" y="9.875" transform="rotate(0)"><tspan id="SvgjsTspan1644" dy="16" x="50.5"><tspan id="SvgjsTspan1645" style="text-decoration:;">快速查询</tspan></tspan></text></g></g><g id="SvgjsG1646" transform="translate(540.5,449.49999237060547)"><path id="SvgjsPath1647" d="M 0 0L 101 0L 101 39L 0 39Z" stroke="rgba(50,50,50,1)" stroke-width="2" fill-opacity="1" fill="#ffcce6"></path><g id="SvgjsG1648"><text id="SvgjsText1649" font-family="微软雅黑" text-anchor="middle" font-size="13px" width="81px" fill="#323232" font-weight="400" align="middle" lineHeight="125%" anchor="middle" family="微软雅黑" size="13px" weight="400" font-style="" opacity="1" y="9.875" transform="rotate(0)"><tspan id="SvgjsTspan1650" dy="16" x="50.5"><tspan id="SvgjsTspan1651" style="text-decoration:;">简单计算</tspan></tspan></text></g></g><g id="SvgjsG1652" transform="translate(540.5,527.4999923706055)"><path id="SvgjsPath1653" d="M 0 0L 101 0L 101 39L 0 39Z" stroke="rgba(50,50,50,1)" stroke-width="2" fill-opacity="1" fill="#ffcce6"></path><g id="SvgjsG1654"><text id="SvgjsText1655" font-family="微软雅黑" text-anchor="middle" font-size="13px" width="81px" fill="#323232" font-weight="400" align="middle" lineHeight="125%" anchor="middle" family="微软雅黑" size="13px" weight="400" font-style="" opacity="1" y="9.875" transform="rotate(0)"><tspan id="SvgjsTspan1656" dy="16" x="50.5"><tspan id="SvgjsTspan1657" style="text-decoration:;">临时存储</tspan></tspan></text></g></g><g id="SvgjsG1658" transform="translate(551,150.49999237060547)"><path id="SvgjsPath1659" d="M 0 0L 120 0L 120 40L 0 40Z" stroke="none" fill="none"></path><g id="SvgjsG1660"><text id="SvgjsText1661" font-family="微软雅黑" text-anchor="middle" font-size="13px" width="120px" fill="#323232" font-weight="400" align="middle" lineHeight="125%" anchor="middle" family="微软雅黑" size="13px" weight="400" font-style="" opacity="1" y="10.375" transform="rotate(0)"><tspan id="SvgjsTspan1662" dy="16" x="60"><tspan id="SvgjsTspan1663" style="text-decoration:;">订阅</tspan></tspan></text></g></g><g id="SvgjsG1664"><path id="SvgjsPath1665" d="M660 468.99999237060547L677.5 468.99999237060547L677.5 429.74999237060547L735 429.74999237060547" stroke="#323232" stroke-width="2" fill="none" marker-end="url(#SvgjsMarker1666)"></path></g><g id="SvgjsG1668"><path id="SvgjsPath1669" d="M660 468.99999237060547L677.5 468.99999237060547L677.5 527.4999923706055L735 527.4999923706055" stroke="#323232" stroke-width="2" fill="none" marker-end="url(#SvgjsMarker1670)"></path></g><g id="SvgjsG1672" transform="translate(767.5,163.99999237060547)"><path id="SvgjsPath1673" d="M 0 0L 101 0L 101 39L 0 39Z" stroke="rgba(50,50,50,1)" stroke-width="2" fill-opacity="1" fill="#ffffff"></path><g id="SvgjsG1674"><text id="SvgjsText1675" font-family="微软雅黑" text-anchor="middle" font-size="13px" width="81px" fill="#323232" font-weight="400" align="middle" lineHeight="125%" anchor="middle" family="微软雅黑" size="13px" weight="400" font-style="" opacity="1" y="9.875" transform="rotate(0)"><tspan id="SvgjsTspan1676" dy="16" x="50.5"><tspan id="SvgjsTspan1677" style="text-decoration:;">BI平台</tspan></tspan></text></g></g><g id="SvgjsG1678" transform="translate(1026,163.99999237060547)"><path id="SvgjsPath1679" d="M 0 0L 101 0L 101 39L 0 39Z" stroke="rgba(50,50,50,1)" stroke-width="2" fill-opacity="1" fill="#ffffff"></path><g id="SvgjsG1680"><text id="SvgjsText1681" font-family="微软雅黑" text-anchor="middle" font-size="13px" width="81px" fill="#323232" font-weight="400" align="middle" lineHeight="125%" anchor="middle" family="微软雅黑" size="13px" weight="400" font-style="" opacity="1" y="9.875" transform="rotate(0)"><tspan id="SvgjsTspan1682" dy="16" x="50.5"><tspan id="SvgjsTspan1683" style="text-decoration:;">监控平台</tspan></tspan></text></g></g><g id="SvgjsG1684" transform="translate(898,221.99999237060547)"><path id="SvgjsPath1685" d="M 0 0L 101 0L 101 39L 0 39Z" stroke="rgba(50,50,50,1)" stroke-width="2" fill-opacity="1" fill="#ffffff"></path><g id="SvgjsG1686"><text id="SvgjsText1687" font-family="微软雅黑" text-anchor="middle" font-size="13px" width="81px" fill="#323232" font-weight="400" align="middle" lineHeight="125%" anchor="middle" family="微软雅黑" size="13px" weight="400" font-style="" opacity="1" y="9.875" transform="rotate(0)"><tspan id="SvgjsTspan1688" dy="16" x="50.5"><tspan id="SvgjsTspan1689" style="text-decoration:;">风控平台</tspan></tspan></text></g></g><g id="SvgjsG1690" transform="translate(1026,221.99999237060547)"><path id="SvgjsPath1691" d="M 0 0L 101 0L 101 39L 0 39Z" stroke="rgba(50,50,50,1)" stroke-width="2" fill-opacity="1" fill="#ffffff"></path><g id="SvgjsG1692"><text id="SvgjsText1693" font-family="微软雅黑" text-anchor="middle" font-size="13px" width="81px" fill="#323232" font-weight="400" align="middle" lineHeight="125%" anchor="middle" family="微软雅黑" size="13px" weight="400" font-style="" opacity="1" y="9.875" transform="rotate(0)"><tspan id="SvgjsTspan1694" dy="16" x="50.5"><tspan id="SvgjsTspan1695" style="text-decoration:;">安全平台</tspan></tspan></text></g></g><g id="SvgjsG1696"><path id="SvgjsPath1697" d="M805 508.99999237060547L805 479.24999237060547L805 479.24999237060547L805 449.49999237060547" stroke="#323232" stroke-width="2" fill="none" marker-end="url(#SvgjsMarker1698)"></path></g><g id="SvgjsG1700"><path id="SvgjsPath1701" d="M852 529.9999923706055L871 529.9999923706055L871 529.9999923706055L890 529.9999923706055" stroke="#323232" stroke-width="2" fill="none" marker-start="url(#SvgjsMarker1702)" marker-end="url(#SvgjsMarker1704)"></path></g><g id="SvgjsG1706"><path id="SvgjsPath1707" d="M805 408.49999237060547L805 387.74999237060547L805 387.74999237060547L805 366.99999237060547" stroke="#323232" stroke-width="2" fill="none" marker-start="url(#SvgjsMarker1708)" marker-end="url(#SvgjsMarker1710)"></path></g><g id="SvgjsG1712"><path id="SvgjsPath1713" d="M940 508.99999237060547L940 437.99999237060547L940 437.99999237060547L940 366.99999237060547" stroke="#323232" stroke-width="2" fill="none" marker-start="url(#SvgjsMarker1714)" marker-end="url(#SvgjsMarker1716)"></path></g><g id="SvgjsG1718" transform="translate(898,163.99999237060547)"><path id="SvgjsPath1719" d="M 0 0L 101 0L 101 39L 0 39Z" stroke="rgba(50,50,50,1)" stroke-width="2" fill-opacity="1" fill="#ffffff"></path><g id="SvgjsG1720"><text id="SvgjsText1721" font-family="微软雅黑" text-anchor="middle" font-size="13px" width="81px" fill="#323232" font-weight="400" align="middle" lineHeight="125%" anchor="middle" family="微软雅黑" size="13px" weight="400" font-style="" opacity="1" y="9.875" transform="rotate(0)"><tspan id="SvgjsTspan1722" dy="16" x="50.5"><tspan id="SvgjsTspan1723" style="text-decoration:;">链路平台</tspan></tspan></text></g></g><g id="SvgjsG1724" transform="translate(767.5,221.99999237060547)"><path id="SvgjsPath1725" d="M 0 0L 101 0L 101 39L 0 39Z" stroke="rgba(50,50,50,1)" stroke-width="2" fill-opacity="1" fill="#ffffff"></path><g id="SvgjsG1726"><text id="SvgjsText1727" font-family="微软雅黑" text-anchor="middle" font-size="13px" width="81px" fill="#323232" font-weight="400" align="middle" lineHeight="125%" anchor="middle" family="微软雅黑" size="13px" weight="400" font-style="" opacity="1" y="9.875" transform="rotate(0)"><tspan id="SvgjsTspan1728" dy="16" x="50.5"><tspan id="SvgjsTspan1729" style="text-decoration:;">运维平台</tspan></tspan></text></g></g><g id="SvgjsG1730" transform="translate(1060.5999908447266,386.99999237060547)"><path id="SvgjsPath1731" d="M 0 0L 120 0L 120 40L 0 40Z" stroke="none" fill="none"></path><g id="SvgjsG1732"><text id="SvgjsText1733" font-family="微软雅黑" text-anchor="middle" font-size="13px" width="120px" fill="#323232" font-weight="700" align="middle" lineHeight="125%" anchor="middle" family="微软雅黑" size="13px" weight="700" font-style="" opacity="1" y="10.375" transform="rotate(0)"><tspan id="SvgjsTspan1734" dy="16" x="60"><tspan id="SvgjsTspan1735" style="text-decoration:;">实时</tspan></tspan></text></g></g><g id="SvgjsG1736" transform="translate(1060.5999908447266,483.99999237060547)"><path id="SvgjsPath1737" d="M 0 0L 120 0L 120 40L 0 40Z" stroke="none" fill="none"></path><g id="SvgjsG1738"><text id="SvgjsText1739" font-family="微软雅黑" text-anchor="middle" font-size="13px" width="120px" fill="#323232" font-weight="700" align="middle" lineHeight="125%" anchor="middle" family="微软雅黑" size="13px" weight="700" font-style="" opacity="1" y="10.375" transform="rotate(0)"><tspan id="SvgjsTspan1740" dy="16" x="60"><tspan id="SvgjsTspan1741" style="text-decoration:;">离线</tspan></tspan></text></g></g></svg>