<svg id="SvgjsSvg1006" width="1210.59375" height="637" xmlns="http://www.w3.org/2000/svg" version="1.1" xmlns:xlink="http://www.w3.org/1999/xlink" xmlns:svgjs="http://svgjs.com/svgjs"><defs id="SvgjsDefs1007"><marker id="SvgjsMarker1072" markerWidth="14" markerHeight="10" refX="10" refY="5" viewBox="0 0 14 10" orient="auto" markerUnits="userSpaceOnUse" stroke-dasharray="0,0"><path id="SvgjsPath1073" d="M0,0 L14,5 L0,10 L0,0" fill="#323232" stroke="#323232" stroke-width="1"></path></marker><marker id="SvgjsMarker1076" markerWidth="14" markerHeight="10" refX="10" refY="5" viewBox="0 0 14 10" orient="auto" markerUnits="userSpaceOnUse" stroke-dasharray="0,0"><path id="SvgjsPath1077" d="M0,0 L14,5 L0,10 L0,0" fill="#323232" stroke="#323232" stroke-width="1"></path></marker><marker id="SvgjsMarker1080" markerWidth="14" markerHeight="10" refX="10" refY="5" viewBox="0 0 14 10" orient="auto" markerUnits="userSpaceOnUse" stroke-dasharray="0,0"><path id="SvgjsPath1081" d="M0,0 L14,5 L0,10 L0,0" fill="#323232" stroke="#323232" stroke-width="1"></path></marker><marker id="SvgjsMarker1182" markerWidth="14" markerHeight="10" refX="10" refY="5" viewBox="0 0 14 10" orient="auto" markerUnits="userSpaceOnUse" stroke-dasharray="0,0"><path id="SvgjsPath1183" d="M0,0 L14,5 L0,10 L0,0" fill="#323232" stroke="#323232" stroke-width="1"></path></marker><marker id="SvgjsMarker1186" markerWidth="14" markerHeight="10" refX="10" refY="5" viewBox="0 0 14 10" orient="auto" markerUnits="userSpaceOnUse" stroke-dasharray="0,0"><path id="SvgjsPath1187" d="M0,0 L14,5 L0,10 L0,0" fill="#323232" stroke="#323232" stroke-width="1"></path></marker><marker id="SvgjsMarker1206" markerWidth="14" markerHeight="10" refX="4" refY="5" viewBox="0 0 14 10" orient="auto" markerUnits="userSpaceOnUse" stroke-dasharray="0,0"><path id="SvgjsPath1207" d="M14,0 L0,5 L14,10 L14,0" fill="#323232" stroke="#323232" stroke-width="1"></path></marker><marker id="SvgjsMarker1210" markerWidth="14" markerHeight="10" refX="4" refY="5" viewBox="0 0 14 10" orient="auto" markerUnits="userSpaceOnUse" stroke-dasharray="0,0"><path id="SvgjsPath1211" d="M14,0 L0,5 L14,10 L14,0" fill="#323232" stroke="#323232" stroke-width="1"></path></marker><marker id="SvgjsMarker1212" markerWidth="14" markerHeight="10" refX="10" refY="5" viewBox="0 0 14 10" orient="auto" markerUnits="userSpaceOnUse" stroke-dasharray="0,0"><path id="SvgjsPath1213" d="M0,0 L14,5 L0,10 L0,0" fill="#323232" stroke="#323232" stroke-width="1"></path></marker><marker id="SvgjsMarker1216" markerWidth="14" markerHeight="10" refX="4" refY="5" viewBox="0 0 14 10" orient="auto" markerUnits="userSpaceOnUse" stroke-dasharray="0,0"><path id="SvgjsPath1217" d="M14,0 L0,5 L14,10 L14,0" fill="#323232" stroke="#323232" stroke-width="1"></path></marker><marker id="SvgjsMarker1218" markerWidth="14" markerHeight="10" refX="10" refY="5" viewBox="0 0 14 10" orient="auto" markerUnits="userSpaceOnUse" stroke-dasharray="0,0"><path id="SvgjsPath1219" d="M0,0 L14,5 L0,10 L0,0" fill="#323232" stroke="#323232" stroke-width="1"></path></marker><marker id="SvgjsMarker1242" markerWidth="14" markerHeight="10" refX="10" refY="5" viewBox="0 0 14 10" orient="auto" markerUnits="userSpaceOnUse" stroke-dasharray="0,0"><path id="SvgjsPath1243" d="M0,0 L14,5 L0,10 L0,0" fill="#323232" stroke="#323232" stroke-width="1"></path></marker><marker id="SvgjsMarker1246" markerWidth="14" markerHeight="10" refX="10" refY="5" viewBox="0 0 14 10" orient="auto" markerUnits="userSpaceOnUse" stroke-dasharray="0,0"><path id="SvgjsPath1247" d="M0,0 L14,5 L0,10 L0,0" fill="#323232" stroke="#323232" stroke-width="1"></path></marker><marker id="SvgjsMarker1250" markerWidth="14" markerHeight="10" refX="10" refY="5" viewBox="0 0 14 10" orient="auto" markerUnits="userSpaceOnUse" stroke-dasharray="0,0"><path id="SvgjsPath1251" d="M0,0 L14,5 L0,10 L0,0" fill="#323232" stroke="#323232" stroke-width="1"></path></marker><marker id="SvgjsMarker1258" markerWidth="14" markerHeight="10" refX="10" refY="5" viewBox="0 0 14 10" orient="auto" markerUnits="userSpaceOnUse" stroke-dasharray="0,0"><path id="SvgjsPath1259" d="M0,0 L14,5 L0,10 L0,0" fill="#323232" stroke="#323232" stroke-width="1"></path></marker><marker id="SvgjsMarker1316" markerWidth="14" markerHeight="10" refX="10" refY="5" viewBox="0 0 14 10" orient="auto" markerUnits="userSpaceOnUse" stroke-dasharray="0,0"><path id="SvgjsPath1317" d="M0,0 L14,5 L0,10 L0,0" fill="#323232" stroke="#323232" stroke-width="1"></path></marker><marker id="SvgjsMarker1320" markerWidth="14" markerHeight="10" refX="4" refY="5" viewBox="0 0 14 10" orient="auto" markerUnits="userSpaceOnUse" stroke-dasharray="0,0"><path id="SvgjsPath1321" d="M14,0 L0,5 L14,10 L14,0" fill="#323232" stroke="#323232" stroke-width="1"></path></marker><marker id="SvgjsMarker1322" markerWidth="14" markerHeight="10" refX="10" refY="5" viewBox="0 0 14 10" orient="auto" markerUnits="userSpaceOnUse" stroke-dasharray="0,0"><path id="SvgjsPath1323" d="M0,0 L14,5 L0,10 L0,0" fill="#323232" stroke="#323232" stroke-width="1"></path></marker><marker id="SvgjsMarker1326" markerWidth="14" markerHeight="10" refX="4" refY="5" viewBox="0 0 14 10" orient="auto" markerUnits="userSpaceOnUse" stroke-dasharray="0,0"><path id="SvgjsPath1327" d="M14,0 L0,5 L14,10 L14,0" fill="#323232" stroke="#323232" stroke-width="1"></path></marker><marker id="SvgjsMarker1328" markerWidth="14" markerHeight="10" refX="10" refY="5" viewBox="0 0 14 10" orient="auto" markerUnits="userSpaceOnUse" stroke-dasharray="0,0"><path id="SvgjsPath1329" d="M0,0 L14,5 L0,10 L0,0" fill="#323232" stroke="#323232" stroke-width="1"></path></marker><marker id="SvgjsMarker1332" markerWidth="14" markerHeight="10" refX="4" refY="5" viewBox="0 0 14 10" orient="auto" markerUnits="userSpaceOnUse" stroke-dasharray="0,0"><path id="SvgjsPath1333" d="M14,0 L0,5 L14,10 L14,0" fill="#323232" stroke="#323232" stroke-width="1"></path></marker><marker id="SvgjsMarker1334" markerWidth="14" markerHeight="10" refX="10" refY="5" viewBox="0 0 14 10" orient="auto" markerUnits="userSpaceOnUse" stroke-dasharray="0,0"><path id="SvgjsPath1335" d="M0,0 L14,5 L0,10 L0,0" fill="#323232" stroke="#323232" stroke-width="1"></path></marker><marker id="SvgjsMarker1362" markerWidth="14" markerHeight="10" refX="4" refY="5" viewBox="0 0 14 10" orient="auto" markerUnits="userSpaceOnUse" stroke-dasharray="0,0"><path id="SvgjsPath1363" d="M14,0 L0,5 L14,10 L14,0" fill="#323232" stroke="#323232" stroke-width="1"></path></marker><marker id="SvgjsMarker1364" markerWidth="14" markerHeight="10" refX="10" refY="5" viewBox="0 0 14 10" orient="auto" markerUnits="userSpaceOnUse" stroke-dasharray="0,0"><path id="SvgjsPath1365" d="M0,0 L14,5 L0,10 L0,0" fill="#323232" stroke="#323232" stroke-width="1"></path></marker><marker id="SvgjsMarker1368" markerWidth="14" markerHeight="10" refX="4" refY="5" viewBox="0 0 14 10" orient="auto" markerUnits="userSpaceOnUse" stroke-dasharray="0,0"><path id="SvgjsPath1369" d="M14,0 L0,5 L14,10 L14,0" fill="#323232" stroke="#323232" stroke-width="1"></path></marker><marker id="SvgjsMarker1370" markerWidth="14" markerHeight="10" refX="10" refY="5" viewBox="0 0 14 10" orient="auto" markerUnits="userSpaceOnUse" stroke-dasharray="0,0"><path id="SvgjsPath1371" d="M0,0 L14,5 L0,10 L0,0" fill="#323232" stroke="#323232" stroke-width="1"></path></marker><marker id="SvgjsMarker1380" markerWidth="14" markerHeight="10" refX="4" refY="5" viewBox="0 0 14 10" orient="auto" markerUnits="userSpaceOnUse" stroke-dasharray="0,0"><path id="SvgjsPath1381" d="M14,0 L0,5 L14,10 L14,0" fill="#323232" stroke="#323232" stroke-width="1"></path></marker><marker id="SvgjsMarker1382" markerWidth="14" markerHeight="10" refX="10" refY="5" viewBox="0 0 14 10" orient="auto" markerUnits="userSpaceOnUse" stroke-dasharray="0,0"><path id="SvgjsPath1383" d="M0,0 L14,5 L0,10 L0,0" fill="#323232" stroke="#323232" stroke-width="1"></path></marker></defs><g id="SvgjsG1008" transform="translate(689.5999908447266,25)"><path id="SvgjsPath1009" d="M 0 4Q 0 0 4 0L 492.40000915527344 0Q 496.40000915527344 0 496.40000915527344 4L 496.40000915527344 262Q 496.40000915527344 266 492.40000915527344 266L 4 266Q 0 266 0 262Z" stroke-dasharray="3,4" stroke="rgba(50,50,50,1)" stroke-width="2" fill-opacity="1" fill="#ffffff"></path><g id="SvgjsG1010"><text id="SvgjsText1011" font-family="微软雅黑" text-anchor="middle" font-size="13px" width="477px" fill="#323232" font-weight="400" align="middle" lineHeight="125%" anchor="middle" family="微软雅黑" size="13px" weight="400" font-style="" opacity="1" y="122.375" transform="rotate(0)"></text></g></g><g id="SvgjsG1012" transform="translate(739,143)"><path id="SvgjsPath1013" d="M 0 4Q 0 0 4 0L 409 0Q 413 0 413 4L 413 131Q 413 135 409 135L 4 135Q 0 135 0 131Z" stroke="rgba(50,50,50,1)" stroke-width="2" fill-opacity="1" fill="#ffffff"></path><g id="SvgjsG1014"><text id="SvgjsText1015" font-family="微软雅黑" text-anchor="middle" font-size="13px" width="393px" fill="#323232" font-weight="400" align="middle" lineHeight="125%" anchor="middle" family="微软雅黑" size="13px" weight="400" font-style="" opacity="1" y="56.875" transform="rotate(0)"></text></g></g><g id="SvgjsG1016" transform="translate(690.2999954223633,322)"><path id="SvgjsPath1017" d="M 0 4Q 0 0 4 0L 491 0Q 495 0 495 4L 495 283Q 495 287 491 287L 4 287Q 0 287 0 283Z" stroke-dasharray="3,4" stroke="rgba(50,50,50,1)" stroke-width="2" fill-opacity="1" fill="#ffffff"></path><g id="SvgjsG1018"><text id="SvgjsText1019" font-family="微软雅黑" text-anchor="middle" font-size="13px" width="475px" fill="#323232" font-weight="400" align="middle" lineHeight="125%" anchor="middle" family="微软雅黑" size="13px" weight="400" font-style="" opacity="1" y="132.875" transform="rotate(0)"></text></g></g><g id="SvgjsG1020" transform="translate(25,25)"><path id="SvgjsPath1021" d="M 0 4Q 0 0 4 0L 456 0Q 460 0 460 4L 460 278Q 460 282 456 282L 4 282Q 0 282 0 278Z" stroke-dasharray="3,4" stroke="rgba(50,50,50,1)" stroke-width="2" fill-opacity="1" fill="#ffffff"></path><g id="SvgjsG1022"><text id="SvgjsText1023" font-family="微软雅黑" text-anchor="middle" font-size="13px" width="440px" fill="#323232" font-weight="400" align="middle" lineHeight="125%" anchor="middle" family="微软雅黑" size="13px" weight="400" font-style="" opacity="1" y="130.375" transform="rotate(0)"></text></g></g><g id="SvgjsG1024" transform="translate(25,326)"><path id="SvgjsPath1025" d="M 0 4Q 0 0 4 0L 456 0Q 460 0 460 4L 460 282Q 460 286 456 286L 4 286Q 0 286 0 282Z" stroke-dasharray="3,4" stroke="rgba(50,50,50,1)" stroke-width="2" fill-opacity="1" fill="#ffffff"></path><g id="SvgjsG1026"><text id="SvgjsText1027" font-family="微软雅黑" text-anchor="middle" font-size="13px" width="440px" fill="#323232" font-weight="400" align="middle" lineHeight="125%" anchor="middle" family="微软雅黑" size="13px" weight="400" font-style="" opacity="1" y="132.375" transform="rotate(0)"></text></g></g><g id="SvgjsG1028" transform="translate(735,390.75)"><path id="SvgjsPath1029" d="M 0 4Q 0 0 4 0L 406 0Q 410 0 410 4L 410 74Q 410 78 406 78L 4 78Q 0 78 0 74Z" stroke="rgba(50,50,50,1)" stroke-width="2" fill-opacity="1" fill="#ffffff"></path><g id="SvgjsG1030"><text id="SvgjsText1031" font-family="微软雅黑" text-anchor="middle" font-size="13px" width="390px" fill="#323232" font-weight="400" align="middle" lineHeight="125%" anchor="middle" family="微软雅黑" size="13px" weight="400" font-style="" opacity="1" y="28.375" transform="rotate(0)"></text></g></g><g id="SvgjsG1032" transform="translate(69,170)"><path id="SvgjsPath1033" d="M 0 0L 93.5 0L 93.5 81L 0 81Z" stroke="rgba(50,50,50,1)" stroke-width="2" fill-opacity="1" fill="#ffffcc"></path><g id="SvgjsG1034"><text id="SvgjsText1035" font-family="微软雅黑" text-anchor="middle" font-size="13px" width="74px" fill="#323232" font-weight="400" align="middle" lineHeight="125%" anchor="middle" family="微软雅黑" size="13px" weight="400" font-style="" opacity="1" y="29.875" transform="rotate(0)"><tspan id="SvgjsTspan1036" dy="16" x="47"><tspan id="SvgjsTspan1037" style="text-decoration:;">外部数据</tspan></tspan></text></g></g><g id="SvgjsG1038" transform="translate(162,170)"><path id="SvgjsPath1039" d="M 0 0L 99 0L 99 81L 0 81Z" stroke="rgba(50,50,50,1)" stroke-width="2" fill-opacity="1" fill="#ffffcc"></path><g id="SvgjsG1040"><text id="SvgjsText1041" font-family="微软雅黑" text-anchor="middle" font-size="13px" width="79px" fill="#323232" font-weight="400" align="middle" lineHeight="125%" anchor="middle" family="微软雅黑" size="13px" weight="400" font-style="" opacity="1" y="29.875" transform="rotate(0)"><tspan id="SvgjsTspan1042" dy="16" x="49.5"><tspan id="SvgjsTspan1043" style="text-decoration:;">业务数据</tspan></tspan></text></g></g><g id="SvgjsG1044" transform="translate(261.375,170)"><path id="SvgjsPath1045" d="M 0 0L 92 0L 92 81L 0 81Z" stroke="rgba(50,50,50,1)" stroke-width="2" fill-opacity="1" fill="#ffffcc"></path><g id="SvgjsG1046"><text id="SvgjsText1047" font-family="微软雅黑" text-anchor="middle" font-size="13px" width="72px" fill="#323232" font-weight="400" align="middle" lineHeight="125%" anchor="middle" family="微软雅黑" size="13px" weight="400" font-style="" opacity="1" y="29.875" transform="rotate(0)"><tspan id="SvgjsTspan1048" dy="16" x="46"><tspan id="SvgjsTspan1049" style="text-decoration:;">监控数据</tspan></tspan></text></g></g><g id="SvgjsG1050" transform="translate(67.75,514)"><path id="SvgjsPath1051" d="M 0 0L 94.5 0L 94.5 40L 0 40Z" stroke="rgba(50,50,50,1)" stroke-width="2" fill-opacity="1" fill="#e6ffcc"></path><g id="SvgjsG1052"><text id="SvgjsText1053" font-family="微软雅黑" text-anchor="middle" font-size="13px" width="75px" fill="#323232" font-weight="400" align="middle" lineHeight="125%" anchor="middle" family="微软雅黑" size="13px" weight="400" font-style="" opacity="1" y="9.375" transform="rotate(0)"><tspan id="SvgjsTspan1054" dy="16" x="47.5"><tspan id="SvgjsTspan1055" style="text-decoration:;">爬虫</tspan></tspan></text></g></g><g id="SvgjsG1056" transform="translate(162.25,467)"><path id="SvgjsPath1057" d="M 0 0L 98.5 0L 98.5 47L 0 47Z" stroke="rgba(50,50,50,1)" stroke-width="2" fill-opacity="1" fill="#e6ffcc"></path><g id="SvgjsG1058"><text id="SvgjsText1059" font-family="微软雅黑" text-anchor="middle" font-size="13px" width="79px" fill="#323232" font-weight="400" align="middle" lineHeight="125%" anchor="middle" family="微软雅黑" size="13px" weight="400" font-style="" opacity="1" y="12.875" transform="rotate(0)"><tspan id="SvgjsTspan1060" dy="16" x="49.5"><tspan id="SvgjsTspan1061" style="text-decoration:;">CDC组件</tspan></tspan></text></g></g><g id="SvgjsG1062" transform="translate(260.75,427)"><path id="SvgjsPath1063" d="M 0 0L 93.25 0L 93.25 40L 0 40Z" stroke="rgba(50,50,50,1)" stroke-width="2" fill-opacity="1" fill="#e6ffcc"></path><g id="SvgjsG1064"><text id="SvgjsText1065" font-family="微软雅黑" text-anchor="middle" font-size="13px" width="74px" fill="#323232" font-weight="400" align="middle" lineHeight="125%" anchor="middle" family="微软雅黑" size="13px" weight="400" font-style="" opacity="1" y="0.875" transform="rotate(0)"><tspan id="SvgjsTspan1066" dy="16" x="47"><tspan id="SvgjsTspan1067" style="text-decoration:;">SDK/</tspan></tspan><tspan id="SvgjsTspan1068" dy="16" x="47"><tspan id="SvgjsTspan1069" style="text-decoration:;">Agent</tspan></tspan></text></g></g><g id="SvgjsG1070"><path id="SvgjsPath1071" d="M115 252L115 382.5L115 382.5L115 510.4" stroke="#323232" stroke-width="2" fill="none" marker-end="url(#SvgjsMarker1072)"></path></g><g id="SvgjsG1074"><path id="SvgjsPath1075" d="M211.5 252L211.5 359L211.5 359L211.5 463.4" stroke="#323232" stroke-width="2" fill="none" marker-end="url(#SvgjsMarker1076)"></path></g><g id="SvgjsG1078"><path id="SvgjsPath1079" d="M307.375 252L307.375 298L307.375 298L307.375 341.4" stroke="#323232" stroke-width="2" fill="none" marker-end="url(#SvgjsMarker1080)"></path></g><g id="SvgjsG1082" transform="translate(735,488.5)"><path id="SvgjsPath1083" d="M 0 4Q 0 0 4 0L 406 0Q 410 0 410 4L 410 74Q 410 78 406 78L 4 78Q 0 78 0 74Z" stroke="rgba(50,50,50,1)" stroke-width="2" fill-opacity="1" fill="#ffffff"></path><g id="SvgjsG1084"><text id="SvgjsText1085" font-family="微软雅黑" text-anchor="middle" font-size="13px" width="390px" fill="#323232" font-weight="400" align="middle" lineHeight="125%" anchor="middle" family="微软雅黑" size="13px" weight="400" font-style="" opacity="1" y="28.375" transform="rotate(0)"></text></g></g><g id="SvgjsG1086" transform="translate(253,260)"><path id="SvgjsPath1087" d="M 0 0L 120 0L 120 40L 0 40Z" stroke="none" fill="none"></path><g id="SvgjsG1088"><text id="SvgjsText1089" font-family="微软雅黑" text-anchor="middle" font-size="13px" width="120px" fill="#323232" font-weight="400" align="middle" lineHeight="125%" anchor="middle" family="微软雅黑" size="13px" weight="400" font-style="" opacity="1" y="9.375" transform="rotate(0)"><tspan id="SvgjsTspan1090" dy="16" x="60"><tspan id="SvgjsTspan1091" style="text-decoration:;">log/metric/trace</tspan></tspan></text></g></g><g id="SvgjsG1092" transform="translate(148.5,260)"><path id="SvgjsPath1093" d="M 0 0L 120 0L 120 40L 0 40Z" stroke="none" fill="none"></path><g id="SvgjsG1094"><text id="SvgjsText1095" font-family="微软雅黑" text-anchor="middle" font-size="13px" width="120px" fill="#323232" font-weight="400" align="middle" lineHeight="125%" anchor="middle" family="微软雅黑" size="13px" weight="400" font-style="" opacity="1" y="9.375" transform="rotate(0)"><tspan id="SvgjsTspan1096" dy="16" x="60"><tspan id="SvgjsTspan1097" style="text-decoration:;">binlog</tspan></tspan></text></g></g><g id="SvgjsG1098" transform="translate(55,260)"><path id="SvgjsPath1099" d="M 0 0L 120 0L 120 40L 0 40Z" stroke="none" fill="none"></path><g id="SvgjsG1100"><text id="SvgjsText1101" font-family="微软雅黑" text-anchor="middle" font-size="13px" width="120px" fill="#323232" font-weight="400" align="middle" lineHeight="125%" anchor="middle" family="微软雅黑" size="13px" weight="400" font-style="" opacity="1" y="9.375" transform="rotate(0)"><tspan id="SvgjsTspan1102" dy="16" x="60"><tspan id="SvgjsTspan1103" style="text-decoration:;">http</tspan></tspan></text></g></g><g id="SvgjsG1104" transform="translate(758,509)"><path id="SvgjsPath1105" d="M 0 0L 94 0L 94 42L 0 42Z" stroke="rgba(50,50,50,1)" stroke-width="2" fill-opacity="1" fill="#ccffff"></path><g id="SvgjsG1106"><text id="SvgjsText1107" font-family="微软雅黑" text-anchor="middle" font-size="13px" width="74px" fill="#323232" font-weight="400" align="middle" lineHeight="125%" anchor="middle" family="微软雅黑" size="13px" weight="400" font-style="" opacity="1" y="10.375" transform="rotate(0)"><tspan id="SvgjsTspan1108" dy="16" x="47"><tspan id="SvgjsTspan1109" style="text-decoration:;">离线存储</tspan></tspan></text></g></g><g id="SvgjsG1110" transform="translate(753.5,408.5)"><path id="SvgjsPath1111" d="M 0 0L 103 0L 103 41L 0 41Z" stroke="rgba(50,50,50,1)" stroke-width="2" fill-opacity="1" fill="#ccffff"></path><g id="SvgjsG1112"><text id="SvgjsText1113" font-family="微软雅黑" text-anchor="middle" font-size="13px" width="83px" fill="#323232" font-weight="400" align="middle" lineHeight="125%" anchor="middle" family="微软雅黑" size="13px" weight="400" font-style="" opacity="1" y="9.875" transform="rotate(0)"><tspan id="SvgjsTspan1114" dy="16" x="51.5"><tspan id="SvgjsTspan1115" style="text-decoration:;">流计算</tspan></tspan></text></g></g><g id="SvgjsG1116" transform="translate(890,509)"><path id="SvgjsPath1117" d="M 0 0L 100 0L 100 42L 0 42Z" stroke="rgba(50,50,50,1)" stroke-width="2" fill-opacity="1" fill="#ccffff"></path><g id="SvgjsG1118"><text id="SvgjsText1119" font-family="微软雅黑" text-anchor="middle" font-size="13px" width="80px" fill="#323232" font-weight="400" align="middle" lineHeight="125%" anchor="middle" family="微软雅黑" size="13px" weight="400" font-style="" opacity="1" y="10.375" transform="rotate(0)"><tspan id="SvgjsTspan1120" dy="16" x="50"><tspan id="SvgjsTspan1121" style="text-decoration:;">离线计算</tspan></tspan></text></g></g><g id="SvgjsG1122" transform="translate(1039.5,407)"><path id="SvgjsPath1123" d="M 0 0L 48.5 0L 48.5 144L 0 144Z" stroke="rgba(50,50,50,1)" stroke-width="2" fill-opacity="1" fill="#ccffff"></path><g id="SvgjsG1124"><text id="SvgjsText1125" font-family="微软雅黑" text-anchor="middle" font-size="13px" width="29px" fill="#323232" font-weight="400" align="middle" lineHeight="125%" anchor="middle" family="微软雅黑" size="13px" weight="400" font-style="" opacity="1" y="44.875" transform="rotate(0)"><tspan id="SvgjsTspan1126" dy="16" x="24.5"><tspan id="SvgjsTspan1127" style="text-decoration:;">AI</tspan></tspan><tspan id="SvgjsTspan1128" dy="16" x="24.5"><tspan id="SvgjsTspan1129" style="text-decoration:;">平</tspan></tspan><tspan id="SvgjsTspan1130" dy="16" x="24.5"><tspan id="SvgjsTspan1131" style="text-decoration:;">台</tspan></tspan></text></g></g><g id="SvgjsG1132" transform="translate(162.25,81)"><path id="SvgjsPath1133" d="M 0 0L 191.75 0L 191.75 39L 0 39Z" stroke="rgba(50,50,50,1)" stroke-width="2" fill-opacity="1" fill="#ffffcc"></path><g id="SvgjsG1134"><text id="SvgjsText1135" font-family="微软雅黑" text-anchor="middle" font-size="13px" width="172px" fill="#323232" font-weight="400" align="middle" lineHeight="125%" anchor="middle" family="微软雅黑" size="13px" weight="400" font-style="" opacity="1" y="8.875" transform="rotate(0)"><tspan id="SvgjsTspan1136" dy="16" x="96"><tspan id="SvgjsTspan1137" style="text-decoration:;">应用/平台/系统/硬件</tspan></tspan></text></g></g><g id="SvgjsG1138" transform="translate(165.5,32)"><path id="SvgjsPath1139" d="M 0 0L 120 0L 120 40L 0 40Z" stroke="none" fill="none"></path><g id="SvgjsG1140"><text id="SvgjsText1141" font-family="微软雅黑" text-anchor="middle" font-size="26px" width="120px" fill="#323232" font-weight="700" align="middle" lineHeight="125%" anchor="middle" family="微软雅黑" size="26px" weight="700" font-style="" opacity="1" y="-2.75" transform="rotate(0)"><tspan id="SvgjsTspan1142" dy="32" x="60"><tspan id="SvgjsTspan1143" style="text-decoration:;">生产</tspan></tspan></text></g></g><g id="SvgjsG1144" transform="translate(151.5,572)"><path id="SvgjsPath1145" d="M 0 0L 120 0L 120 40L 0 40Z" stroke="none" fill="none"></path><g id="SvgjsG1146"><text id="SvgjsText1147" font-family="微软雅黑" text-anchor="middle" font-size="26px" width="120px" fill="#323232" font-weight="700" align="middle" lineHeight="125%" anchor="middle" family="微软雅黑" size="26px" weight="700" font-style="" opacity="1" y="-2.75" transform="rotate(0)"><tspan id="SvgjsTspan1148" dy="32" x="60"><tspan id="SvgjsTspan1149" style="text-decoration:;">采集</tspan></tspan></text></g></g><g id="SvgjsG1150" transform="translate(879,569)"><path id="SvgjsPath1151" d="M 0 0L 156.5 0L 156.5 43L 0 43Z" stroke="none" fill="none"></path><g id="SvgjsG1152"><text id="SvgjsText1153" font-family="微软雅黑" text-anchor="middle" font-size="26px" width="157px" fill="#323232" font-weight="700" align="middle" lineHeight="125%" anchor="middle" family="微软雅黑" size="26px" weight="700" font-style="" opacity="1" y="-1.25" transform="rotate(0)"><tspan id="SvgjsTspan1154" dy="32" x="78.5"><tspan id="SvgjsTspan1155" style="text-decoration:;">存储与计算</tspan></tspan></text></g></g><g id="SvgjsG1156" transform="translate(888.5,25)"><path id="SvgjsPath1157" d="M 0 0L 120 0L 120 40L 0 40Z" stroke="none" fill="none"></path><g id="SvgjsG1158"><text id="SvgjsText1159" font-family="微软雅黑" text-anchor="middle" font-size="26px" width="120px" fill="#323232" font-weight="700" align="middle" lineHeight="125%" anchor="middle" family="微软雅黑" size="26px" weight="700" font-style="" opacity="1" y="-2.75" transform="rotate(0)"><tspan id="SvgjsTspan1160" dy="32" x="60"><tspan id="SvgjsTspan1161" style="text-decoration:;">消费</tspan></tspan></text></g></g><g id="SvgjsG1162" transform="translate(767.5,81)"><path id="SvgjsPath1163" d="M 0 0L 101 0L 101 39L 0 39Z" stroke="rgba(50,50,50,1)" stroke-width="2" fill-opacity="1" fill="#ffe6cc"></path><g id="SvgjsG1164"><text id="SvgjsText1165" font-family="微软雅黑" text-anchor="middle" font-size="13px" width="81px" fill="#323232" font-weight="400" align="middle" lineHeight="125%" anchor="middle" family="微软雅黑" size="13px" weight="400" font-style="" opacity="1" y="8.875" transform="rotate(0)"><tspan id="SvgjsTspan1166" dy="16" x="50.5"><tspan id="SvgjsTspan1167" style="text-decoration:;">应用</tspan></tspan></text></g></g><g id="SvgjsG1168" transform="translate(894.5,81)"><path id="SvgjsPath1169" d="M 0 0L 102 0L 102 39L 0 39Z" stroke="rgba(50,50,50,1)" stroke-width="2" fill-opacity="1" fill="#ffe6cc"></path><g id="SvgjsG1170"><text id="SvgjsText1171" font-family="微软雅黑" text-anchor="middle" font-size="13px" width="82px" fill="#323232" font-weight="400" align="middle" lineHeight="125%" anchor="middle" family="微软雅黑" size="13px" weight="400" font-style="" opacity="1" y="8.875" transform="rotate(0)"><tspan id="SvgjsTspan1172" dy="16" x="51"><tspan id="SvgjsTspan1173" style="text-decoration:;">商业分析</tspan></tspan></text></g></g><g id="SvgjsG1174" transform="translate(1026,81)"><path id="SvgjsPath1175" d="M 0 0L 97 0L 97 39L 0 39Z" stroke="rgba(50,50,50,1)" stroke-width="2" fill-opacity="1" fill="#ffe6cc"></path><g id="SvgjsG1176"><text id="SvgjsText1177" font-family="微软雅黑" text-anchor="middle" font-size="13px" width="77px" fill="#323232" font-weight="400" align="middle" lineHeight="125%" anchor="middle" family="微软雅黑" size="13px" weight="400" font-style="" opacity="1" y="8.875" transform="rotate(0)"><tspan id="SvgjsTspan1178" dy="16" x="48.5"><tspan id="SvgjsTspan1179" style="text-decoration:;">服务质量</tspan></tspan></text></g></g><g id="SvgjsG1180"><path id="SvgjsPath1181" d="M258.125 121L258.125 145L211.875 145L211.875 166.4" stroke="#323232" stroke-width="2" fill="none" marker-end="url(#SvgjsMarker1182)"></path></g><g id="SvgjsG1184"><path id="SvgjsPath1185" d="M258.125 121L258.125 145L307.375 145L307.375 166.4" stroke="#323232" stroke-width="2" fill="none" marker-end="url(#SvgjsMarker1186)"></path></g><g id="SvgjsG1188" transform="translate(408,390.75)"><path id="SvgjsPath1189" d="M 0 0L 43 0L 43 199.5L 0 199.5Z" stroke="rgba(50,50,50,1)" stroke-width="2" fill-opacity="1" fill="#e6ffcc"></path><g id="SvgjsG1190"><text id="SvgjsText1191" font-family="微软雅黑" text-anchor="middle" font-size="13px" width="23px" fill="#323232" font-weight="400" align="middle" lineHeight="125%" anchor="middle" family="微软雅黑" size="13px" weight="400" font-style="" opacity="1" y="48.125" transform="rotate(0)"><tspan id="SvgjsTspan1192" dy="16" x="21.5"><tspan id="SvgjsTspan1193" style="text-decoration:;">统</tspan></tspan><tspan id="SvgjsTspan1194" dy="16" x="21.5"><tspan id="SvgjsTspan1195" style="text-decoration:;">一</tspan></tspan><tspan id="SvgjsTspan1196" dy="16" x="21.5"><tspan id="SvgjsTspan1197" style="text-decoration:;">采</tspan></tspan><tspan id="SvgjsTspan1198" dy="16" x="21.5"><tspan id="SvgjsTspan1199" style="text-decoration:;">集</tspan></tspan><tspan id="SvgjsTspan1200" dy="16" x="21.5"><tspan id="SvgjsTspan1201" style="text-decoration:;">平</tspan></tspan><tspan id="SvgjsTspan1202" dy="16" x="21.5"><tspan id="SvgjsTspan1203" style="text-decoration:;">台</tspan></tspan></text></g></g><g id="SvgjsG1204"><path id="SvgjsPath1205" d="M165.85 534L381.125 534L381.125 490.5L407 490.5" stroke="#323232" stroke-width="2" fill="none" marker-start="url(#SvgjsMarker1206)"></path></g><g id="SvgjsG1208"><path id="SvgjsPath1209" d="M357.6 447L381 447L381 490.5L404.4 490.5" stroke="#323232" stroke-width="2" fill="none" marker-start="url(#SvgjsMarker1210)" marker-end="url(#SvgjsMarker1212)"></path></g><g id="SvgjsG1214"><path id="SvgjsPath1215" d="M264.35 490.5L334.375 490.5L334.375 490.5L404.4 490.5" stroke="#323232" stroke-width="2" fill="none" marker-start="url(#SvgjsMarker1216)" marker-end="url(#SvgjsMarker1218)"></path></g><g id="SvgjsG1220" transform="translate(735,337)"><path id="SvgjsPath1221" d="M 0 0L 410 0L 410 30L 0 30Z" stroke="rgba(50,50,50,1)" stroke-width="2" fill-opacity="1" fill="#ccffff"></path><g id="SvgjsG1222"><text id="SvgjsText1223" font-family="微软雅黑" text-anchor="middle" font-size="13px" width="390px" fill="#323232" font-weight="400" align="middle" lineHeight="125%" anchor="middle" family="微软雅黑" size="13px" weight="400" font-style="" opacity="1" y="4.375" transform="rotate(0)"><tspan id="SvgjsTspan1224" dy="16" x="205"><tspan id="SvgjsTspan1225" style="text-decoration:;">统一数据开发平台</tspan></tspan></text></g></g><g id="SvgjsG1226" transform="translate(543,440)"><path id="SvgjsPath1227" d="M 0 0L 84 0L 84 40L 0 40Z" stroke="none" fill="none"></path><g id="SvgjsG1228"><text id="SvgjsText1229" font-family="微软雅黑" text-anchor="middle" font-size="13px" width="84px" fill="#323232" font-weight="400" align="middle" lineHeight="125%" anchor="middle" family="微软雅黑" size="13px" weight="400" font-style="" opacity="1" y="9.375" transform="rotate(0)"><tspan id="SvgjsTspan1230" dy="16" x="42"><tspan id="SvgjsTspan1231" style="text-decoration:;">数据总线</tspan></tspan></text></g></g><g id="SvgjsG1232" transform="translate(228.5625,345)"><path id="SvgjsPath1233" d="M 0 0L 157.625 0L 157.625 34L 0 34Z" stroke="rgba(50,50,50,1)" stroke-width="2" fill-opacity="1" fill="#e6ffcc"></path><g id="SvgjsG1234"><text id="SvgjsText1235" font-family="微软雅黑" text-anchor="middle" font-size="13px" width="138px" fill="#323232" font-weight="400" align="middle" lineHeight="125%" anchor="middle" family="微软雅黑" size="13px" weight="400" font-style="" opacity="1" y="-2.125" transform="rotate(0)"><tspan id="SvgjsTspan1236" dy="16" x="79"><tspan id="SvgjsTspan1237" style="text-decoration:;">埋点/schema</tspan></tspan><tspan id="SvgjsTspan1238" dy="16" x="79"><tspan id="SvgjsTspan1239" style="text-decoration:;font-size: inherit;">管理平台</tspan></tspan></text></g></g><g id="SvgjsG1240"><path id="SvgjsPath1241" d="M307.375 380L307.375 403L307.375 403L307.375 423.4" stroke="#323232" stroke-width="2" fill="none" marker-end="url(#SvgjsMarker1242)"></path></g><g id="SvgjsG1244"><path id="SvgjsPath1245" d="M589.5 325L589.5 158L686.7543981534732 158" stroke="#323232" stroke-width="2" fill="none" marker-end="url(#SvgjsMarker1246)"></path></g><g id="SvgjsG1248"><path id="SvgjsPath1249" d="M937.7999954223633 321L937.7999954223633 306.5L937.7999954223633 306.5L937.7999954223633 294.6" stroke="#323232" stroke-width="2" fill="none" marker-end="url(#SvgjsMarker1250)"></path></g><g id="SvgjsG1252" transform="translate(517,326)"><path id="SvgjsPath1253" d="M 0 4Q 0 0 4 0L 139 0Q 143 0 143 4L 143 282Q 143 286 139 286L 4 286Q 0 286 0 282Z" stroke-dasharray="3,4" stroke="rgba(50,50,50,1)" stroke-width="2" fill-opacity="1" fill="#ffffff"></path><g id="SvgjsG1254"><text id="SvgjsText1255" font-family="微软雅黑" text-anchor="middle" font-size="13px" width="123px" fill="#323232" font-weight="400" align="middle" lineHeight="125%" anchor="middle" family="微软雅黑" size="13px" weight="400" font-style="" opacity="1" y="132.375" transform="rotate(0)"></text></g></g><g id="SvgjsG1256"><path id="SvgjsPath1257" d="M486 469L501 469L501 469L513.4 469" stroke="#323232" stroke-width="2" fill="none" marker-end="url(#SvgjsMarker1258)"></path></g><g id="SvgjsG1260" transform="translate(531,322)"><path id="SvgjsPath1261" d="M 0 0L 120 0L 120 40L 0 40Z" stroke="none" fill="none"></path><g id="SvgjsG1262"><text id="SvgjsText1263" font-family="微软雅黑" text-anchor="middle" font-size="18px" width="120px" fill="#323232" font-weight="700" align="middle" lineHeight="125%" anchor="middle" family="微软雅黑" size="18px" weight="700" font-style="" opacity="1" y="4.25" transform="rotate(0)"><tspan id="SvgjsTspan1264" dy="22" x="60"><tspan id="SvgjsTspan1265" style="text-decoration:;">数据总线</tspan></tspan></text></g></g><g id="SvgjsG1266" transform="translate(540.5,373)"><path id="SvgjsPath1267" d="M 0 0L 101 0L 101 39L 0 39Z" stroke="rgba(50,50,50,1)" stroke-width="2" fill-opacity="1" fill="#ffcce6"></path><g id="SvgjsG1268"><text id="SvgjsText1269" font-family="微软雅黑" text-anchor="middle" font-size="13px" width="81px" fill="#323232" font-weight="400" align="middle" lineHeight="125%" anchor="middle" family="微软雅黑" size="13px" weight="400" font-style="" opacity="1" y="8.875" transform="rotate(0)"><tspan id="SvgjsTspan1270" dy="16" x="50.5"><tspan id="SvgjsTspan1271" style="text-decoration:;">快速查询</tspan></tspan></text></g></g><g id="SvgjsG1272" transform="translate(540.5,449.5)"><path id="SvgjsPath1273" d="M 0 0L 101 0L 101 39L 0 39Z" stroke="rgba(50,50,50,1)" stroke-width="2" fill-opacity="1" fill="#ffcce6"></path><g id="SvgjsG1274"><text id="SvgjsText1275" font-family="微软雅黑" text-anchor="middle" font-size="13px" width="81px" fill="#323232" font-weight="400" align="middle" lineHeight="125%" anchor="middle" family="微软雅黑" size="13px" weight="400" font-style="" opacity="1" y="8.875" transform="rotate(0)"><tspan id="SvgjsTspan1276" dy="16" x="50.5"><tspan id="SvgjsTspan1277" style="text-decoration:;">简单计算</tspan></tspan></text></g></g><g id="SvgjsG1278" transform="translate(540.5,527.5)"><path id="SvgjsPath1279" d="M 0 0L 101 0L 101 39L 0 39Z" stroke="rgba(50,50,50,1)" stroke-width="2" fill-opacity="1" fill="#ffcce6"></path><g id="SvgjsG1280"><text id="SvgjsText1281" font-family="微软雅黑" text-anchor="middle" font-size="13px" width="81px" fill="#323232" font-weight="400" align="middle" lineHeight="125%" anchor="middle" family="微软雅黑" size="13px" weight="400" font-style="" opacity="1" y="8.875" transform="rotate(0)"><tspan id="SvgjsTspan1282" dy="16" x="50.5"><tspan id="SvgjsTspan1283" style="text-decoration:;">临时存储</tspan></tspan></text></g></g><g id="SvgjsG1284" transform="translate(551,150.5)"><path id="SvgjsPath1285" d="M 0 0L 120 0L 120 40L 0 40Z" stroke="none" fill="none"></path><g id="SvgjsG1286"><text id="SvgjsText1287" font-family="微软雅黑" text-anchor="middle" font-size="13px" width="120px" fill="#323232" font-weight="400" align="middle" lineHeight="125%" anchor="middle" family="微软雅黑" size="13px" weight="400" font-style="" opacity="1" y="9.375" transform="rotate(0)"><tspan id="SvgjsTspan1288" dy="16" x="60"><tspan id="SvgjsTspan1289" style="text-decoration:;">订阅</tspan></tspan></text></g></g><g id="SvgjsG1290" transform="translate(767.5,164)"><path id="SvgjsPath1291" d="M 0 0L 101 0L 101 39L 0 39Z" stroke="rgba(50,50,50,1)" stroke-width="2" fill-opacity="1" fill="#ffffff"></path><g id="SvgjsG1292"><text id="SvgjsText1293" font-family="微软雅黑" text-anchor="middle" font-size="13px" width="81px" fill="#323232" font-weight="400" align="middle" lineHeight="125%" anchor="middle" family="微软雅黑" size="13px" weight="400" font-style="" opacity="1" y="8.875" transform="rotate(0)"><tspan id="SvgjsTspan1294" dy="16" x="50.5"><tspan id="SvgjsTspan1295" style="text-decoration:;">BI平台</tspan></tspan></text></g></g><g id="SvgjsG1296" transform="translate(1026,164)"><path id="SvgjsPath1297" d="M 0 0L 101 0L 101 39L 0 39Z" stroke="rgba(50,50,50,1)" stroke-width="2" fill-opacity="1" fill="#ffffff"></path><g id="SvgjsG1298"><text id="SvgjsText1299" font-family="微软雅黑" text-anchor="middle" font-size="13px" width="81px" fill="#323232" font-weight="400" align="middle" lineHeight="125%" anchor="middle" family="微软雅黑" size="13px" weight="400" font-style="" opacity="1" y="8.875" transform="rotate(0)"><tspan id="SvgjsTspan1300" dy="16" x="50.5"><tspan id="SvgjsTspan1301" style="text-decoration:;">监控平台</tspan></tspan></text></g></g><g id="SvgjsG1302" transform="translate(898,222)"><path id="SvgjsPath1303" d="M 0 0L 101 0L 101 39L 0 39Z" stroke="rgba(50,50,50,1)" stroke-width="2" fill-opacity="1" fill="#ffffff"></path><g id="SvgjsG1304"><text id="SvgjsText1305" font-family="微软雅黑" text-anchor="middle" font-size="13px" width="81px" fill="#323232" font-weight="400" align="middle" lineHeight="125%" anchor="middle" family="微软雅黑" size="13px" weight="400" font-style="" opacity="1" y="8.875" transform="rotate(0)"><tspan id="SvgjsTspan1306" dy="16" x="50.5"><tspan id="SvgjsTspan1307" style="text-decoration:;">风控平台</tspan></tspan></text></g></g><g id="SvgjsG1308" transform="translate(1026,222)"><path id="SvgjsPath1309" d="M 0 0L 101 0L 101 39L 0 39Z" stroke="rgba(50,50,50,1)" stroke-width="2" fill-opacity="1" fill="#ffffff"></path><g id="SvgjsG1310"><text id="SvgjsText1311" font-family="微软雅黑" text-anchor="middle" font-size="13px" width="81px" fill="#323232" font-weight="400" align="middle" lineHeight="125%" anchor="middle" family="微软雅黑" size="13px" weight="400" font-style="" opacity="1" y="8.875" transform="rotate(0)"><tspan id="SvgjsTspan1312" dy="16" x="50.5"><tspan id="SvgjsTspan1313" style="text-decoration:;">安全平台</tspan></tspan></text></g></g><g id="SvgjsG1314"><path id="SvgjsPath1315" d="M805 508L805 479.25L805 479.25L805 453.1" stroke="#323232" stroke-width="2" fill="none" marker-end="url(#SvgjsMarker1316)"></path></g><g id="SvgjsG1318"><path id="SvgjsPath1319" d="M855.6 530L871 530L871 530L886.4 530" stroke="#323232" stroke-width="2" fill="none" marker-start="url(#SvgjsMarker1320)" marker-end="url(#SvgjsMarker1322)"></path></g><g id="SvgjsG1324"><path id="SvgjsPath1325" d="M805 404.9L805 387.75L805 387.75L805 370.6" stroke="#323232" stroke-width="2" fill="none" marker-start="url(#SvgjsMarker1326)" marker-end="url(#SvgjsMarker1328)"></path></g><g id="SvgjsG1330"><path id="SvgjsPath1331" d="M940 505.4L940 438L940 438L940 370.6" stroke="#323232" stroke-width="2" fill="none" marker-start="url(#SvgjsMarker1332)" marker-end="url(#SvgjsMarker1334)"></path></g><g id="SvgjsG1336" transform="translate(898,164)"><path id="SvgjsPath1337" d="M 0 0L 101 0L 101 39L 0 39Z" stroke="rgba(50,50,50,1)" stroke-width="2" fill-opacity="1" fill="#ffffff"></path><g id="SvgjsG1338"><text id="SvgjsText1339" font-family="微软雅黑" text-anchor="middle" font-size="13px" width="81px" fill="#323232" font-weight="400" align="middle" lineHeight="125%" anchor="middle" family="微软雅黑" size="13px" weight="400" font-style="" opacity="1" y="8.875" transform="rotate(0)"><tspan id="SvgjsTspan1340" dy="16" x="50.5"><tspan id="SvgjsTspan1341" style="text-decoration:;">链路平台</tspan></tspan></text></g></g><g id="SvgjsG1342" transform="translate(767.5,222)"><path id="SvgjsPath1343" d="M 0 0L 101 0L 101 39L 0 39Z" stroke="rgba(50,50,50,1)" stroke-width="2" fill-opacity="1" fill="#ffffff"></path><g id="SvgjsG1344"><text id="SvgjsText1345" font-family="微软雅黑" text-anchor="middle" font-size="13px" width="81px" fill="#323232" font-weight="400" align="middle" lineHeight="125%" anchor="middle" family="微软雅黑" size="13px" weight="400" font-style="" opacity="1" y="8.875" transform="rotate(0)"><tspan id="SvgjsTspan1346" dy="16" x="50.5"><tspan id="SvgjsTspan1347" style="text-decoration:;">运维平台</tspan></tspan></text></g></g><g id="SvgjsG1348" transform="translate(1060.5999908447266,387)"><path id="SvgjsPath1349" d="M 0 0L 120 0L 120 40L 0 40Z" stroke="none" fill="none"></path><g id="SvgjsG1350"><text id="SvgjsText1351" font-family="微软雅黑" text-anchor="middle" font-size="13px" width="120px" fill="#323232" font-weight="700" align="middle" lineHeight="125%" anchor="middle" family="微软雅黑" size="13px" weight="700" font-style="" opacity="1" y="9.375" transform="rotate(0)"><tspan id="SvgjsTspan1352" dy="16" x="60"><tspan id="SvgjsTspan1353" style="text-decoration:;">实时</tspan></tspan></text></g></g><g id="SvgjsG1354" transform="translate(1060.5999908447266,484)"><path id="SvgjsPath1355" d="M 0 0L 120 0L 120 40L 0 40Z" stroke="none" fill="none"></path><g id="SvgjsG1356"><text id="SvgjsText1357" font-family="微软雅黑" text-anchor="middle" font-size="13px" width="120px" fill="#323232" font-weight="700" align="middle" lineHeight="125%" anchor="middle" family="微软雅黑" size="13px" weight="700" font-style="" opacity="1" y="9.375" transform="rotate(0)"><tspan id="SvgjsTspan1358" dy="16" x="60"><tspan id="SvgjsTspan1359" style="text-decoration:;">离线</tspan></tspan></text></g></g><g id="SvgjsG1360"><path id="SvgjsPath1361" d="M663.6 469L697.5 469L697.5 429.75L731.4 429.75" stroke="#323232" stroke-width="2" fill="none" marker-start="url(#SvgjsMarker1362)" marker-end="url(#SvgjsMarker1364)"></path></g><g id="SvgjsG1366"><path id="SvgjsPath1367" d="M663.6 469L697.5 469L697.5 527.5L731.4 527.5" stroke="#323232" stroke-width="2" fill="none" marker-start="url(#SvgjsMarker1368)" marker-end="url(#SvgjsMarker1370)"></path></g><g id="SvgjsG1372" transform="translate(69.25,81)"><path id="SvgjsPath1373" d="M 0 0L 93 0L 93 39L 0 39Z" stroke="rgba(50,50,50,1)" stroke-width="2" fill-opacity="1" fill="#ffffcc"></path><g id="SvgjsG1374"><text id="SvgjsText1375" font-family="微软雅黑" text-anchor="middle" font-size="13px" width="73px" fill="#323232" font-weight="400" align="middle" lineHeight="125%" anchor="middle" family="微软雅黑" size="13px" weight="400" font-style="" opacity="1" y="8.875" transform="rotate(0)"><tspan id="SvgjsTspan1376" dy="16" x="46.5"><tspan id="SvgjsTspan1377" style="text-decoration:;">公司外部</tspan></tspan></text></g></g><g id="SvgjsG1378"><path id="SvgjsPath1379" d="M115.75 123.6L115.75 145L115.75 145L115.75 166.4" stroke="#323232" stroke-width="2" fill="none" marker-start="url(#SvgjsMarker1380)" marker-end="url(#SvgjsMarker1382)"></path></g></svg>