<svg id="SvgjsSvg1384" width="1210.59375" height="637" xmlns="http://www.w3.org/2000/svg" version="1.1" xmlns:xlink="http://www.w3.org/1999/xlink" xmlns:svgjs="http://svgjs.com/svgjs"><defs id="SvgjsDefs1385"><marker id="SvgjsMarker1450" markerWidth="14" markerHeight="10" refX="10" refY="5" viewBox="0 0 14 10" orient="auto" markerUnits="userSpaceOnUse" stroke-dasharray="0,0"><path id="SvgjsPath1451" d="M0,0 L14,5 L0,10 L0,0" fill="#323232" stroke="#323232" stroke-width="1"></path></marker><marker id="SvgjsMarker1454" markerWidth="14" markerHeight="10" refX="10" refY="5" viewBox="0 0 14 10" orient="auto" markerUnits="userSpaceOnUse" stroke-dasharray="0,0"><path id="SvgjsPath1455" d="M0,0 L14,5 L0,10 L0,0" fill="#323232" stroke="#323232" stroke-width="1"></path></marker><marker id="SvgjsMarker1458" markerWidth="14" markerHeight="10" refX="10" refY="5" viewBox="0 0 14 10" orient="auto" markerUnits="userSpaceOnUse" stroke-dasharray="0,0"><path id="SvgjsPath1459" d="M0,0 L14,5 L0,10 L0,0" fill="#323232" stroke="#323232" stroke-width="1"></path></marker><marker id="SvgjsMarker1560" markerWidth="14" markerHeight="10" refX="10" refY="5" viewBox="0 0 14 10" orient="auto" markerUnits="userSpaceOnUse" stroke-dasharray="0,0"><path id="SvgjsPath1561" d="M0,0 L14,5 L0,10 L0,0" fill="#323232" stroke="#323232" stroke-width="1"></path></marker><marker id="SvgjsMarker1564" markerWidth="14" markerHeight="10" refX="10" refY="5" viewBox="0 0 14 10" orient="auto" markerUnits="userSpaceOnUse" stroke-dasharray="0,0"><path id="SvgjsPath1565" d="M0,0 L14,5 L0,10 L0,0" fill="#323232" stroke="#323232" stroke-width="1"></path></marker><marker id="SvgjsMarker1584" markerWidth="14" markerHeight="10" refX="4" refY="5" viewBox="0 0 14 10" orient="auto" markerUnits="userSpaceOnUse" stroke-dasharray="0,0"><path id="SvgjsPath1585" d="M14,0 L0,5 L14,10 L14,0" fill="#323232" stroke="#323232" stroke-width="1"></path></marker><marker id="SvgjsMarker1588" markerWidth="14" markerHeight="10" refX="4" refY="5" viewBox="0 0 14 10" orient="auto" markerUnits="userSpaceOnUse" stroke-dasharray="0,0"><path id="SvgjsPath1589" d="M14,0 L0,5 L14,10 L14,0" fill="#323232" stroke="#323232" stroke-width="1"></path></marker><marker id="SvgjsMarker1590" markerWidth="14" markerHeight="10" refX="10" refY="5" viewBox="0 0 14 10" orient="auto" markerUnits="userSpaceOnUse" stroke-dasharray="0,0"><path id="SvgjsPath1591" d="M0,0 L14,5 L0,10 L0,0" fill="#323232" stroke="#323232" stroke-width="1"></path></marker><marker id="SvgjsMarker1594" markerWidth="14" markerHeight="10" refX="4" refY="5" viewBox="0 0 14 10" orient="auto" markerUnits="userSpaceOnUse" stroke-dasharray="0,0"><path id="SvgjsPath1595" d="M14,0 L0,5 L14,10 L14,0" fill="#323232" stroke="#323232" stroke-width="1"></path></marker><marker id="SvgjsMarker1596" markerWidth="14" markerHeight="10" refX="10" refY="5" viewBox="0 0 14 10" orient="auto" markerUnits="userSpaceOnUse" stroke-dasharray="0,0"><path id="SvgjsPath1597" d="M0,0 L14,5 L0,10 L0,0" fill="#323232" stroke="#323232" stroke-width="1"></path></marker><marker id="SvgjsMarker1620" markerWidth="14" markerHeight="10" refX="10" refY="5" viewBox="0 0 14 10" orient="auto" markerUnits="userSpaceOnUse" stroke-dasharray="0,0"><path id="SvgjsPath1621" d="M0,0 L14,5 L0,10 L0,0" fill="#323232" stroke="#323232" stroke-width="1"></path></marker><marker id="SvgjsMarker1624" markerWidth="14" markerHeight="10" refX="10" refY="5" viewBox="0 0 14 10" orient="auto" markerUnits="userSpaceOnUse" stroke-dasharray="0,0"><path id="SvgjsPath1625" d="M0,0 L14,5 L0,10 L0,0" fill="#323232" stroke="#323232" stroke-width="1"></path></marker><marker id="SvgjsMarker1628" markerWidth="14" markerHeight="10" refX="10" refY="5" viewBox="0 0 14 10" orient="auto" markerUnits="userSpaceOnUse" stroke-dasharray="0,0"><path id="SvgjsPath1629" d="M0,0 L14,5 L0,10 L0,0" fill="#323232" stroke="#323232" stroke-width="1"></path></marker><marker id="SvgjsMarker1636" markerWidth="14" markerHeight="10" refX="10" refY="5" viewBox="0 0 14 10" orient="auto" markerUnits="userSpaceOnUse" stroke-dasharray="0,0"><path id="SvgjsPath1637" d="M0,0 L14,5 L0,10 L0,0" fill="#323232" stroke="#323232" stroke-width="1"></path></marker><marker id="SvgjsMarker1694" markerWidth="14" markerHeight="10" refX="10" refY="5" viewBox="0 0 14 10" orient="auto" markerUnits="userSpaceOnUse" stroke-dasharray="0,0"><path id="SvgjsPath1695" d="M0,0 L14,5 L0,10 L0,0" fill="#323232" stroke="#323232" stroke-width="1"></path></marker><marker id="SvgjsMarker1698" markerWidth="14" markerHeight="10" refX="4" refY="5" viewBox="0 0 14 10" orient="auto" markerUnits="userSpaceOnUse" stroke-dasharray="0,0"><path id="SvgjsPath1699" d="M14,0 L0,5 L14,10 L14,0" fill="#323232" stroke="#323232" stroke-width="1"></path></marker><marker id="SvgjsMarker1700" markerWidth="14" markerHeight="10" refX="10" refY="5" viewBox="0 0 14 10" orient="auto" markerUnits="userSpaceOnUse" stroke-dasharray="0,0"><path id="SvgjsPath1701" d="M0,0 L14,5 L0,10 L0,0" fill="#323232" stroke="#323232" stroke-width="1"></path></marker><marker id="SvgjsMarker1704" markerWidth="14" markerHeight="10" refX="4" refY="5" viewBox="0 0 14 10" orient="auto" markerUnits="userSpaceOnUse" stroke-dasharray="0,0"><path id="SvgjsPath1705" d="M14,0 L0,5 L14,10 L14,0" fill="#323232" stroke="#323232" stroke-width="1"></path></marker><marker id="SvgjsMarker1706" markerWidth="14" markerHeight="10" refX="10" refY="5" viewBox="0 0 14 10" orient="auto" markerUnits="userSpaceOnUse" stroke-dasharray="0,0"><path id="SvgjsPath1707" d="M0,0 L14,5 L0,10 L0,0" fill="#323232" stroke="#323232" stroke-width="1"></path></marker><marker id="SvgjsMarker1710" markerWidth="14" markerHeight="10" refX="4" refY="5" viewBox="0 0 14 10" orient="auto" markerUnits="userSpaceOnUse" stroke-dasharray="0,0"><path id="SvgjsPath1711" d="M14,0 L0,5 L14,10 L14,0" fill="#323232" stroke="#323232" stroke-width="1"></path></marker><marker id="SvgjsMarker1712" markerWidth="14" markerHeight="10" refX="10" refY="5" viewBox="0 0 14 10" orient="auto" markerUnits="userSpaceOnUse" stroke-dasharray="0,0"><path id="SvgjsPath1713" d="M0,0 L14,5 L0,10 L0,0" fill="#323232" stroke="#323232" stroke-width="1"></path></marker><marker id="SvgjsMarker1740" markerWidth="14" markerHeight="10" refX="4" refY="5" viewBox="0 0 14 10" orient="auto" markerUnits="userSpaceOnUse" stroke-dasharray="0,0"><path id="SvgjsPath1741" d="M14,0 L0,5 L14,10 L14,0" fill="#323232" stroke="#323232" stroke-width="1"></path></marker><marker id="SvgjsMarker1742" markerWidth="14" markerHeight="10" refX="10" refY="5" viewBox="0 0 14 10" orient="auto" markerUnits="userSpaceOnUse" stroke-dasharray="0,0"><path id="SvgjsPath1743" d="M0,0 L14,5 L0,10 L0,0" fill="#323232" stroke="#323232" stroke-width="1"></path></marker><marker id="SvgjsMarker1746" markerWidth="14" markerHeight="10" refX="4" refY="5" viewBox="0 0 14 10" orient="auto" markerUnits="userSpaceOnUse" stroke-dasharray="0,0"><path id="SvgjsPath1747" d="M14,0 L0,5 L14,10 L14,0" fill="#323232" stroke="#323232" stroke-width="1"></path></marker><marker id="SvgjsMarker1748" markerWidth="14" markerHeight="10" refX="10" refY="5" viewBox="0 0 14 10" orient="auto" markerUnits="userSpaceOnUse" stroke-dasharray="0,0"><path id="SvgjsPath1749" d="M0,0 L14,5 L0,10 L0,0" fill="#323232" stroke="#323232" stroke-width="1"></path></marker><marker id="SvgjsMarker1758" markerWidth="14" markerHeight="10" refX="4" refY="5" viewBox="0 0 14 10" orient="auto" markerUnits="userSpaceOnUse" stroke-dasharray="0,0"><path id="SvgjsPath1759" d="M14,0 L0,5 L14,10 L14,0" fill="#323232" stroke="#323232" stroke-width="1"></path></marker><marker id="SvgjsMarker1760" markerWidth="14" markerHeight="10" refX="10" refY="5" viewBox="0 0 14 10" orient="auto" markerUnits="userSpaceOnUse" stroke-dasharray="0,0"><path id="SvgjsPath1761" d="M0,0 L14,5 L0,10 L0,0" fill="#323232" stroke="#323232" stroke-width="1"></path></marker></defs><g id="SvgjsG1386" transform="translate(689.5999908447266,25)"><path id="SvgjsPath1387" d="M 0 4Q 0 0 4 0L 492.40000915527344 0Q 496.40000915527344 0 496.40000915527344 4L 496.40000915527344 262Q 496.40000915527344 266 492.40000915527344 266L 4 266Q 0 266 0 262Z" stroke-dasharray="3,4" stroke="rgba(33,41,48,1)" stroke-width="2" fill-opacity="1" fill="#ffffff"></path><g id="SvgjsG1388"><text id="SvgjsText1389" font-family="微软雅黑" text-anchor="middle" font-size="13px" width="477px" fill="#323232" font-weight="400" align="middle" lineHeight="125%" anchor="middle" family="微软雅黑" size="13px" weight="400" font-style="" opacity="1" y="122.375" transform="rotate(0)"></text></g></g><g id="SvgjsG1390" transform="translate(739,143)"><path id="SvgjsPath1391" d="M 0 4Q 0 0 4 0L 409 0Q 413 0 413 4L 413 131Q 413 135 409 135L 4 135Q 0 135 0 131Z" stroke="rgba(33,41,48,1)" stroke-width="2" fill-opacity="1" fill="#ffffff"></path><g id="SvgjsG1392"><text id="SvgjsText1393" font-family="微软雅黑" text-anchor="middle" font-size="13px" width="393px" fill="#323232" font-weight="400" align="middle" lineHeight="125%" anchor="middle" family="微软雅黑" size="13px" weight="400" font-style="" opacity="1" y="56.875" transform="rotate(0)"></text></g></g><g id="SvgjsG1394" transform="translate(690.2999954223633,322)"><path id="SvgjsPath1395" d="M 0 4Q 0 0 4 0L 491 0Q 495 0 495 4L 495 283Q 495 287 491 287L 4 287Q 0 287 0 283Z" stroke-dasharray="3,4" stroke="rgba(33,41,48,1)" stroke-width="2" fill-opacity="1" fill="#ffffff"></path><g id="SvgjsG1396"><text id="SvgjsText1397" font-family="微软雅黑" text-anchor="middle" font-size="13px" width="475px" fill="#323232" font-weight="400" align="middle" lineHeight="125%" anchor="middle" family="微软雅黑" size="13px" weight="400" font-style="" opacity="1" y="132.875" transform="rotate(0)"></text></g></g><g id="SvgjsG1398" transform="translate(25,25)"><path id="SvgjsPath1399" d="M 0 4Q 0 0 4 0L 456 0Q 460 0 460 4L 460 278Q 460 282 456 282L 4 282Q 0 282 0 278Z" stroke-dasharray="3,4" stroke="rgba(33,41,48,1)" stroke-width="2" fill-opacity="1" fill="#ffffff"></path><g id="SvgjsG1400"><text id="SvgjsText1401" font-family="微软雅黑" text-anchor="middle" font-size="13px" width="440px" fill="#323232" font-weight="400" align="middle" lineHeight="125%" anchor="middle" family="微软雅黑" size="13px" weight="400" font-style="" opacity="1" y="130.375" transform="rotate(0)"></text></g></g><g id="SvgjsG1402" transform="translate(25,326)"><path id="SvgjsPath1403" d="M 0 4Q 0 0 4 0L 456 0Q 460 0 460 4L 460 282Q 460 286 456 286L 4 286Q 0 286 0 282Z" stroke-dasharray="3,4" stroke="rgba(33,41,48,1)" stroke-width="2" fill-opacity="1" fill="#ffffff"></path><g id="SvgjsG1404"><text id="SvgjsText1405" font-family="微软雅黑" text-anchor="middle" font-size="13px" width="440px" fill="#323232" font-weight="400" align="middle" lineHeight="125%" anchor="middle" family="微软雅黑" size="13px" weight="400" font-style="" opacity="1" y="132.375" transform="rotate(0)"></text></g></g><g id="SvgjsG1406" transform="translate(735,390.75)"><path id="SvgjsPath1407" d="M 0 4Q 0 0 4 0L 406 0Q 410 0 410 4L 410 74Q 410 78 406 78L 4 78Q 0 78 0 74Z" stroke="rgba(33,41,48,1)" stroke-width="2" fill-opacity="1" fill="#ffffff"></path><g id="SvgjsG1408"><text id="SvgjsText1409" font-family="微软雅黑" text-anchor="middle" font-size="13px" width="390px" fill="#323232" font-weight="400" align="middle" lineHeight="125%" anchor="middle" family="微软雅黑" size="13px" weight="400" font-style="" opacity="1" y="28.375" transform="rotate(0)"></text></g></g><g id="SvgjsG1410" transform="translate(69,170)"><path id="SvgjsPath1411" d="M 0 0L 93.5 0L 93.5 81L 0 81Z" stroke="rgba(33,41,48,1)" stroke-width="2" fill-opacity="1" fill="#ffffcc"></path><g id="SvgjsG1412"><text id="SvgjsText1413" font-family="微软雅黑" text-anchor="middle" font-size="13px" width="74px" fill="#323232" font-weight="400" align="middle" lineHeight="125%" anchor="middle" family="微软雅黑" size="13px" weight="400" font-style="" opacity="1" y="29.875" transform="rotate(0)"><tspan id="SvgjsTspan1414" dy="16" x="47"><tspan id="SvgjsTspan1415" style="text-decoration:;">外部数据</tspan></tspan></text></g></g><g id="SvgjsG1416" transform="translate(162,170)"><path id="SvgjsPath1417" d="M 0 0L 99 0L 99 81L 0 81Z" stroke="rgba(33,41,48,1)" stroke-width="2" fill-opacity="1" fill="#ffffcc"></path><g id="SvgjsG1418"><text id="SvgjsText1419" font-family="微软雅黑" text-anchor="middle" font-size="13px" width="79px" fill="#323232" font-weight="400" align="middle" lineHeight="125%" anchor="middle" family="微软雅黑" size="13px" weight="400" font-style="" opacity="1" y="29.875" transform="rotate(0)"><tspan id="SvgjsTspan1420" dy="16" x="49.5"><tspan id="SvgjsTspan1421" style="text-decoration:;">业务数据</tspan></tspan></text></g></g><g id="SvgjsG1422" transform="translate(261.375,170)"><path id="SvgjsPath1423" d="M 0 0L 92 0L 92 81L 0 81Z" stroke="rgba(33,41,48,1)" stroke-width="2" fill-opacity="1" fill="#ffffcc"></path><g id="SvgjsG1424"><text id="SvgjsText1425" font-family="微软雅黑" text-anchor="middle" font-size="13px" width="72px" fill="#323232" font-weight="400" align="middle" lineHeight="125%" anchor="middle" family="微软雅黑" size="13px" weight="400" font-style="" opacity="1" y="29.875" transform="rotate(0)"><tspan id="SvgjsTspan1426" dy="16" x="46"><tspan id="SvgjsTspan1427" style="text-decoration:;">监控数据</tspan></tspan></text></g></g><g id="SvgjsG1428" transform="translate(67.75,514)"><path id="SvgjsPath1429" d="M 0 0L 94.5 0L 94.5 40L 0 40Z" stroke="rgba(33,41,48,1)" stroke-width="2" fill-opacity="1" fill="#e6ffcc"></path><g id="SvgjsG1430"><text id="SvgjsText1431" font-family="微软雅黑" text-anchor="middle" font-size="13px" width="75px" fill="#323232" font-weight="400" align="middle" lineHeight="125%" anchor="middle" family="微软雅黑" size="13px" weight="400" font-style="" opacity="1" y="9.375" transform="rotate(0)"><tspan id="SvgjsTspan1432" dy="16" x="47.5"><tspan id="SvgjsTspan1433" style="text-decoration:;">爬虫</tspan></tspan></text></g></g><g id="SvgjsG1434" transform="translate(162.25,467)"><path id="SvgjsPath1435" d="M 0 0L 98.5 0L 98.5 47L 0 47Z" stroke="rgba(33,41,48,1)" stroke-width="2" fill-opacity="1" fill="#e6ffcc"></path><g id="SvgjsG1436"><text id="SvgjsText1437" font-family="微软雅黑" text-anchor="middle" font-size="13px" width="79px" fill="#323232" font-weight="400" align="middle" lineHeight="125%" anchor="middle" family="微软雅黑" size="13px" weight="400" font-style="" opacity="1" y="12.875" transform="rotate(0)"><tspan id="SvgjsTspan1438" dy="16" x="49.5"><tspan id="SvgjsTspan1439" style="text-decoration:;">CDC组件</tspan></tspan></text></g></g><g id="SvgjsG1440" transform="translate(260.75,427)"><path id="SvgjsPath1441" d="M 0 0L 93.25 0L 93.25 40L 0 40Z" stroke="rgba(33,41,48,1)" stroke-width="2" fill-opacity="1" fill="#e6ffcc"></path><g id="SvgjsG1442"><text id="SvgjsText1443" font-family="微软雅黑" text-anchor="middle" font-size="13px" width="74px" fill="#323232" font-weight="400" align="middle" lineHeight="125%" anchor="middle" family="微软雅黑" size="13px" weight="400" font-style="" opacity="1" y="0.875" transform="rotate(0)"><tspan id="SvgjsTspan1444" dy="16" x="47"><tspan id="SvgjsTspan1445" style="text-decoration:;">SDK/</tspan></tspan><tspan id="SvgjsTspan1446" dy="16" x="47"><tspan id="SvgjsTspan1447" style="text-decoration:;">Agent</tspan></tspan></text></g></g><g id="SvgjsG1448"><path id="SvgjsPath1449" d="M115 252L115 382.5L115 382.5L115 510.4" stroke="#323232" stroke-width="2" fill="none" marker-end="url(#SvgjsMarker1450)"></path></g><g id="SvgjsG1452"><path id="SvgjsPath1453" d="M211.5 252L211.5 359L211.5 359L211.5 463.4" stroke="#323232" stroke-width="2" fill="none" marker-end="url(#SvgjsMarker1454)"></path></g><g id="SvgjsG1456"><path id="SvgjsPath1457" d="M307.375 252L307.375 298L307.375 298L307.375 341.4" stroke="#323232" stroke-width="2" fill="none" marker-end="url(#SvgjsMarker1458)"></path></g><g id="SvgjsG1460" transform="translate(735,488.5)"><path id="SvgjsPath1461" d="M 0 4Q 0 0 4 0L 406 0Q 410 0 410 4L 410 74Q 410 78 406 78L 4 78Q 0 78 0 74Z" stroke="rgba(33,41,48,1)" stroke-width="2" fill-opacity="1" fill="#ffffff"></path><g id="SvgjsG1462"><text id="SvgjsText1463" font-family="微软雅黑" text-anchor="middle" font-size="13px" width="390px" fill="#323232" font-weight="400" align="middle" lineHeight="125%" anchor="middle" family="微软雅黑" size="13px" weight="400" font-style="" opacity="1" y="28.375" transform="rotate(0)"></text></g></g><g id="SvgjsG1464" transform="translate(253,260)"><path id="SvgjsPath1465" d="M 0 0L 120 0L 120 40L 0 40Z" stroke="none" fill="none"></path><g id="SvgjsG1466"><text id="SvgjsText1467" font-family="微软雅黑" text-anchor="middle" font-size="13px" width="120px" fill="#323232" font-weight="400" align="middle" lineHeight="125%" anchor="middle" family="微软雅黑" size="13px" weight="400" font-style="" opacity="1" y="9.375" transform="rotate(0)"><tspan id="SvgjsTspan1468" dy="16" x="60"><tspan id="SvgjsTspan1469" style="text-decoration:;">log/metric/trace</tspan></tspan></text></g></g><g id="SvgjsG1470" transform="translate(148.5,260)"><path id="SvgjsPath1471" d="M 0 0L 120 0L 120 40L 0 40Z" stroke="none" fill="none"></path><g id="SvgjsG1472"><text id="SvgjsText1473" font-family="微软雅黑" text-anchor="middle" font-size="13px" width="120px" fill="#323232" font-weight="400" align="middle" lineHeight="125%" anchor="middle" family="微软雅黑" size="13px" weight="400" font-style="" opacity="1" y="9.375" transform="rotate(0)"><tspan id="SvgjsTspan1474" dy="16" x="60"><tspan id="SvgjsTspan1475" style="text-decoration:;">binlog</tspan></tspan></text></g></g><g id="SvgjsG1476" transform="translate(55,260)"><path id="SvgjsPath1477" d="M 0 0L 120 0L 120 40L 0 40Z" stroke="none" fill="none"></path><g id="SvgjsG1478"><text id="SvgjsText1479" font-family="微软雅黑" text-anchor="middle" font-size="13px" width="120px" fill="#323232" font-weight="400" align="middle" lineHeight="125%" anchor="middle" family="微软雅黑" size="13px" weight="400" font-style="" opacity="1" y="9.375" transform="rotate(0)"><tspan id="SvgjsTspan1480" dy="16" x="60"><tspan id="SvgjsTspan1481" style="text-decoration:;">http</tspan></tspan></text></g></g><g id="SvgjsG1482" transform="translate(758,509)"><path id="SvgjsPath1483" d="M 0 0L 94 0L 94 42L 0 42Z" stroke="rgba(33,41,48,1)" stroke-width="2" fill-opacity="1" fill="#ccffff"></path><g id="SvgjsG1484"><text id="SvgjsText1485" font-family="微软雅黑" text-anchor="middle" font-size="13px" width="74px" fill="#323232" font-weight="400" align="middle" lineHeight="125%" anchor="middle" family="微软雅黑" size="13px" weight="400" font-style="" opacity="1" y="10.375" transform="rotate(0)"><tspan id="SvgjsTspan1486" dy="16" x="47"><tspan id="SvgjsTspan1487" style="text-decoration:;">离线存储</tspan></tspan></text></g></g><g id="SvgjsG1488" transform="translate(753.5,408.5)"><path id="SvgjsPath1489" d="M 0 0L 103 0L 103 41L 0 41Z" stroke="rgba(33,41,48,1)" stroke-width="2" fill-opacity="1" fill="#ccffff"></path><g id="SvgjsG1490"><text id="SvgjsText1491" font-family="微软雅黑" text-anchor="middle" font-size="13px" width="83px" fill="#323232" font-weight="400" align="middle" lineHeight="125%" anchor="middle" family="微软雅黑" size="13px" weight="400" font-style="" opacity="1" y="9.875" transform="rotate(0)"><tspan id="SvgjsTspan1492" dy="16" x="51.5"><tspan id="SvgjsTspan1493" style="text-decoration:;">实时计算</tspan></tspan></text></g></g><g id="SvgjsG1494" transform="translate(890,509)"><path id="SvgjsPath1495" d="M 0 0L 100 0L 100 42L 0 42Z" stroke="rgba(33,41,48,1)" stroke-width="2" fill-opacity="1" fill="#ccffff"></path><g id="SvgjsG1496"><text id="SvgjsText1497" font-family="微软雅黑" text-anchor="middle" font-size="13px" width="80px" fill="#323232" font-weight="400" align="middle" lineHeight="125%" anchor="middle" family="微软雅黑" size="13px" weight="400" font-style="" opacity="1" y="10.375" transform="rotate(0)"><tspan id="SvgjsTspan1498" dy="16" x="50"><tspan id="SvgjsTspan1499" style="text-decoration:;">离线计算</tspan></tspan></text></g></g><g id="SvgjsG1500" transform="translate(1039.5,407)"><path id="SvgjsPath1501" d="M 0 0L 48.5 0L 48.5 144L 0 144Z" stroke="rgba(33,41,48,1)" stroke-width="2" fill-opacity="1" fill="#ccffff"></path><g id="SvgjsG1502"><text id="SvgjsText1503" font-family="微软雅黑" text-anchor="middle" font-size="13px" width="29px" fill="#323232" font-weight="400" align="middle" lineHeight="125%" anchor="middle" family="微软雅黑" size="13px" weight="400" font-style="" opacity="1" y="44.875" transform="rotate(0)"><tspan id="SvgjsTspan1504" dy="16" x="24.5"><tspan id="SvgjsTspan1505" style="text-decoration:;">AI</tspan></tspan><tspan id="SvgjsTspan1506" dy="16" x="24.5"><tspan id="SvgjsTspan1507" style="text-decoration:;">平</tspan></tspan><tspan id="SvgjsTspan1508" dy="16" x="24.5"><tspan id="SvgjsTspan1509" style="text-decoration:;">台</tspan></tspan></text></g></g><g id="SvgjsG1510" transform="translate(162.25,81)"><path id="SvgjsPath1511" d="M 0 0L 191.75 0L 191.75 39L 0 39Z" stroke="rgba(33,41,48,1)" stroke-width="2" fill-opacity="1" fill="#ffffcc"></path><g id="SvgjsG1512"><text id="SvgjsText1513" font-family="微软雅黑" text-anchor="middle" font-size="13px" width="172px" fill="#323232" font-weight="400" align="middle" lineHeight="125%" anchor="middle" family="微软雅黑" size="13px" weight="400" font-style="" opacity="1" y="8.875" transform="rotate(0)"><tspan id="SvgjsTspan1514" dy="16" x="96"><tspan id="SvgjsTspan1515" style="text-decoration:;">应用/平台/系统/硬件</tspan></tspan></text></g></g><g id="SvgjsG1516" transform="translate(165.5,32)"><path id="SvgjsPath1517" d="M 0 0L 120 0L 120 40L 0 40Z" stroke="none" fill="none"></path><g id="SvgjsG1518"><text id="SvgjsText1519" font-family="微软雅黑" text-anchor="middle" font-size="26px" width="120px" fill="#323232" font-weight="700" align="middle" lineHeight="125%" anchor="middle" family="微软雅黑" size="26px" weight="700" font-style="" opacity="1" y="-2.75" transform="rotate(0)"><tspan id="SvgjsTspan1520" dy="32" x="60"><tspan id="SvgjsTspan1521" style="text-decoration:;">生产</tspan></tspan></text></g></g><g id="SvgjsG1522" transform="translate(151.5,572)"><path id="SvgjsPath1523" d="M 0 0L 120 0L 120 40L 0 40Z" stroke="none" fill="none"></path><g id="SvgjsG1524"><text id="SvgjsText1525" font-family="微软雅黑" text-anchor="middle" font-size="26px" width="120px" fill="#323232" font-weight="700" align="middle" lineHeight="125%" anchor="middle" family="微软雅黑" size="26px" weight="700" font-style="" opacity="1" y="-2.75" transform="rotate(0)"><tspan id="SvgjsTspan1526" dy="32" x="60"><tspan id="SvgjsTspan1527" style="text-decoration:;">采集</tspan></tspan></text></g></g><g id="SvgjsG1528" transform="translate(879,569)"><path id="SvgjsPath1529" d="M 0 0L 156.5 0L 156.5 43L 0 43Z" stroke="none" fill="none"></path><g id="SvgjsG1530"><text id="SvgjsText1531" font-family="微软雅黑" text-anchor="middle" font-size="26px" width="157px" fill="#323232" font-weight="700" align="middle" lineHeight="125%" anchor="middle" family="微软雅黑" size="26px" weight="700" font-style="" opacity="1" y="-1.25" transform="rotate(0)"><tspan id="SvgjsTspan1532" dy="32" x="78.5"><tspan id="SvgjsTspan1533" style="text-decoration:;">存储与计算</tspan></tspan></text></g></g><g id="SvgjsG1534" transform="translate(888.5,25)"><path id="SvgjsPath1535" d="M 0 0L 120 0L 120 40L 0 40Z" stroke="none" fill="none"></path><g id="SvgjsG1536"><text id="SvgjsText1537" font-family="微软雅黑" text-anchor="middle" font-size="26px" width="120px" fill="#323232" font-weight="700" align="middle" lineHeight="125%" anchor="middle" family="微软雅黑" size="26px" weight="700" font-style="" opacity="1" y="-2.75" transform="rotate(0)"><tspan id="SvgjsTspan1538" dy="32" x="60"><tspan id="SvgjsTspan1539" style="text-decoration:;">消费</tspan></tspan></text></g></g><g id="SvgjsG1540" transform="translate(768,81)"><path id="SvgjsPath1541" d="M 0 0L 101 0L 101 39L 0 39Z" stroke="rgba(33,41,48,1)" stroke-width="2" fill-opacity="1" fill="#ffe6cc"></path><g id="SvgjsG1542"><text id="SvgjsText1543" font-family="微软雅黑" text-anchor="middle" font-size="13px" width="81px" fill="#323232" font-weight="400" align="middle" lineHeight="125%" anchor="middle" family="微软雅黑" size="13px" weight="400" font-style="" opacity="1" y="8.875" transform="rotate(0)"><tspan id="SvgjsTspan1544" dy="16" x="50.5"><tspan id="SvgjsTspan1545" style="text-decoration:;">线上应用</tspan></tspan></text></g></g><g id="SvgjsG1546" transform="translate(894.5,81)"><path id="SvgjsPath1547" d="M 0 0L 102 0L 102 39L 0 39Z" stroke="rgba(33,41,48,1)" stroke-width="2" fill-opacity="1" fill="#ffe6cc"></path><g id="SvgjsG1548"><text id="SvgjsText1549" font-family="微软雅黑" text-anchor="middle" font-size="13px" width="82px" fill="#323232" font-weight="400" align="middle" lineHeight="125%" anchor="middle" family="微软雅黑" size="13px" weight="400" font-style="" opacity="1" y="8.875" transform="rotate(0)"><tspan id="SvgjsTspan1550" dy="16" x="51"><tspan id="SvgjsTspan1551" style="text-decoration:;">商业分析</tspan></tspan></text></g></g><g id="SvgjsG1552" transform="translate(1026,81)"><path id="SvgjsPath1553" d="M 0 0L 97 0L 97 39L 0 39Z" stroke="rgba(33,41,48,1)" stroke-width="2" fill-opacity="1" fill="#ffe6cc"></path><g id="SvgjsG1554"><text id="SvgjsText1555" font-family="微软雅黑" text-anchor="middle" font-size="13px" width="77px" fill="#323232" font-weight="400" align="middle" lineHeight="125%" anchor="middle" family="微软雅黑" size="13px" weight="400" font-style="" opacity="1" y="8.875" transform="rotate(0)"><tspan id="SvgjsTspan1556" dy="16" x="48.5"><tspan id="SvgjsTspan1557" style="text-decoration:;">服务质量</tspan></tspan></text></g></g><g id="SvgjsG1558"><path id="SvgjsPath1559" d="M258.125 121L258.125 145L211.875 145L211.875 166.4" stroke="#323232" stroke-width="2" fill="none" marker-end="url(#SvgjsMarker1560)"></path></g><g id="SvgjsG1562"><path id="SvgjsPath1563" d="M258.125 121L258.125 145L307.375 145L307.375 166.4" stroke="#323232" stroke-width="2" fill="none" marker-end="url(#SvgjsMarker1564)"></path></g><g id="SvgjsG1566" transform="translate(408,390.75)"><path id="SvgjsPath1567" d="M 0 0L 43 0L 43 199.5L 0 199.5Z" stroke="rgba(33,41,48,1)" stroke-width="2" fill-opacity="1" fill="#e6ffcc"></path><g id="SvgjsG1568"><text id="SvgjsText1569" font-family="微软雅黑" text-anchor="middle" font-size="13px" width="23px" fill="#323232" font-weight="400" align="middle" lineHeight="125%" anchor="middle" family="微软雅黑" size="13px" weight="400" font-style="" opacity="1" y="48.125" transform="rotate(0)"><tspan id="SvgjsTspan1570" dy="16" x="21.5"><tspan id="SvgjsTspan1571" style="text-decoration:;">统</tspan></tspan><tspan id="SvgjsTspan1572" dy="16" x="21.5"><tspan id="SvgjsTspan1573" style="text-decoration:;">一</tspan></tspan><tspan id="SvgjsTspan1574" dy="16" x="21.5"><tspan id="SvgjsTspan1575" style="text-decoration:;">采</tspan></tspan><tspan id="SvgjsTspan1576" dy="16" x="21.5"><tspan id="SvgjsTspan1577" style="text-decoration:;">集</tspan></tspan><tspan id="SvgjsTspan1578" dy="16" x="21.5"><tspan id="SvgjsTspan1579" style="text-decoration:;">平</tspan></tspan><tspan id="SvgjsTspan1580" dy="16" x="21.5"><tspan id="SvgjsTspan1581" style="text-decoration:;">台</tspan></tspan></text></g></g><g id="SvgjsG1582"><path id="SvgjsPath1583" d="M165.85 534L381.125 534L381.125 490.5L407 490.5" stroke="#323232" stroke-width="2" fill="none" marker-start="url(#SvgjsMarker1584)"></path></g><g id="SvgjsG1586"><path id="SvgjsPath1587" d="M357.6 447L381 447L381 490.5L404.4 490.5" stroke="#323232" stroke-width="2" fill="none" marker-start="url(#SvgjsMarker1588)" marker-end="url(#SvgjsMarker1590)"></path></g><g id="SvgjsG1592"><path id="SvgjsPath1593" d="M264.35 490.5L334.375 490.5L334.375 490.5L404.4 490.5" stroke="#323232" stroke-width="2" fill="none" marker-start="url(#SvgjsMarker1594)" marker-end="url(#SvgjsMarker1596)"></path></g><g id="SvgjsG1598" transform="translate(735,337)"><path id="SvgjsPath1599" d="M 0 0L 410 0L 410 30L 0 30Z" stroke="rgba(33,41,48,1)" stroke-width="2" fill-opacity="1" fill="#ccffff"></path><g id="SvgjsG1600"><text id="SvgjsText1601" font-family="微软雅黑" text-anchor="middle" font-size="13px" width="390px" fill="#323232" font-weight="400" align="middle" lineHeight="125%" anchor="middle" family="微软雅黑" size="13px" weight="400" font-style="" opacity="1" y="4.375" transform="rotate(0)"><tspan id="SvgjsTspan1602" dy="16" x="205"><tspan id="SvgjsTspan1603" style="text-decoration:;">统一数据开发平台</tspan></tspan></text></g></g><g id="SvgjsG1604" transform="translate(543,440)"><path id="SvgjsPath1605" d="M 0 0L 84 0L 84 40L 0 40Z" stroke="none" fill="none"></path><g id="SvgjsG1606"><text id="SvgjsText1607" font-family="微软雅黑" text-anchor="middle" font-size="13px" width="84px" fill="#323232" font-weight="400" align="middle" lineHeight="125%" anchor="middle" family="微软雅黑" size="13px" weight="400" font-style="" opacity="1" y="9.375" transform="rotate(0)"><tspan id="SvgjsTspan1608" dy="16" x="42"><tspan id="SvgjsTspan1609" style="text-decoration:;">数据总线</tspan></tspan></text></g></g><g id="SvgjsG1610" transform="translate(228.5625,345)"><path id="SvgjsPath1611" d="M 0 0L 157.625 0L 157.625 34L 0 34Z" stroke="rgba(33,41,48,1)" stroke-width="2" fill-opacity="1" fill="#e6ffcc"></path><g id="SvgjsG1612"><text id="SvgjsText1613" font-family="微软雅黑" text-anchor="middle" font-size="13px" width="138px" fill="#323232" font-weight="400" align="middle" lineHeight="125%" anchor="middle" family="微软雅黑" size="13px" weight="400" font-style="" opacity="1" y="-2.125" transform="rotate(0)"><tspan id="SvgjsTspan1614" dy="16" x="79"><tspan id="SvgjsTspan1615" style="text-decoration:;">埋点/schema</tspan></tspan><tspan id="SvgjsTspan1616" dy="16" x="79"><tspan id="SvgjsTspan1617" style="text-decoration:;font-size: inherit;">管理平台</tspan></tspan></text></g></g><g id="SvgjsG1618"><path id="SvgjsPath1619" d="M307.375 380L307.375 403L307.375 403L307.375 423.4" stroke="#323232" stroke-width="2" fill="none" marker-end="url(#SvgjsMarker1620)"></path></g><g id="SvgjsG1622"><path id="SvgjsPath1623" d="M589.5 325L589.5 158L686.7543981534732 158" stroke="#323232" stroke-width="2" fill="none" marker-end="url(#SvgjsMarker1624)"></path></g><g id="SvgjsG1626"><path id="SvgjsPath1627" d="M937.7999954223633 321L937.7999954223633 306.5L937.7999954223633 306.5L937.7999954223633 294.6" stroke="#323232" stroke-width="2" fill="none" marker-end="url(#SvgjsMarker1628)"></path></g><g id="SvgjsG1630" transform="translate(517,326)"><path id="SvgjsPath1631" d="M 0 4Q 0 0 4 0L 139 0Q 143 0 143 4L 143 282Q 143 286 139 286L 4 286Q 0 286 0 282Z" stroke-dasharray="3,4" stroke="rgba(33,41,48,1)" stroke-width="2" fill-opacity="1" fill="#ffffff"></path><g id="SvgjsG1632"><text id="SvgjsText1633" font-family="微软雅黑" text-anchor="middle" font-size="13px" width="123px" fill="#323232" font-weight="400" align="middle" lineHeight="125%" anchor="middle" family="微软雅黑" size="13px" weight="400" font-style="" opacity="1" y="132.375" transform="rotate(0)"></text></g></g><g id="SvgjsG1634"><path id="SvgjsPath1635" d="M486 469L501 469L501 469L513.4 469" stroke="#323232" stroke-width="2" fill="none" marker-end="url(#SvgjsMarker1636)"></path></g><g id="SvgjsG1638" transform="translate(531,322)"><path id="SvgjsPath1639" d="M 0 0L 120 0L 120 40L 0 40Z" stroke="none" fill="none"></path><g id="SvgjsG1640"><text id="SvgjsText1641" font-family="微软雅黑" text-anchor="middle" font-size="18px" width="120px" fill="#323232" font-weight="700" align="middle" lineHeight="125%" anchor="middle" family="微软雅黑" size="18px" weight="700" font-style="" opacity="1" y="4.25" transform="rotate(0)"><tspan id="SvgjsTspan1642" dy="22" x="60"><tspan id="SvgjsTspan1643" style="text-decoration:;">数据总线</tspan></tspan></text></g></g><g id="SvgjsG1644" transform="translate(540.5,373)"><path id="SvgjsPath1645" d="M 0 0L 101 0L 101 39L 0 39Z" stroke="rgba(33,41,48,1)" stroke-width="2" fill-opacity="1" fill="#ffcce6"></path><g id="SvgjsG1646"><text id="SvgjsText1647" font-family="微软雅黑" text-anchor="middle" font-size="13px" width="81px" fill="#323232" font-weight="400" align="middle" lineHeight="125%" anchor="middle" family="微软雅黑" size="13px" weight="400" font-style="" opacity="1" y="8.875" transform="rotate(0)"><tspan id="SvgjsTspan1648" dy="16" x="50.5"><tspan id="SvgjsTspan1649" style="text-decoration:;">快速查询</tspan></tspan></text></g></g><g id="SvgjsG1650" transform="translate(540.5,449.5)"><path id="SvgjsPath1651" d="M 0 0L 101 0L 101 39L 0 39Z" stroke="rgba(33,41,48,1)" stroke-width="2" fill-opacity="1" fill="#ffcce6"></path><g id="SvgjsG1652"><text id="SvgjsText1653" font-family="微软雅黑" text-anchor="middle" font-size="13px" width="81px" fill="#323232" font-weight="400" align="middle" lineHeight="125%" anchor="middle" family="微软雅黑" size="13px" weight="400" font-style="" opacity="1" y="8.875" transform="rotate(0)"><tspan id="SvgjsTspan1654" dy="16" x="50.5"><tspan id="SvgjsTspan1655" style="text-decoration:;">简单计算</tspan></tspan></text></g></g><g id="SvgjsG1656" transform="translate(540.5,527.5)"><path id="SvgjsPath1657" d="M 0 0L 101 0L 101 39L 0 39Z" stroke="rgba(33,41,48,1)" stroke-width="2" fill-opacity="1" fill="#ffcce6"></path><g id="SvgjsG1658"><text id="SvgjsText1659" font-family="微软雅黑" text-anchor="middle" font-size="13px" width="81px" fill="#323232" font-weight="400" align="middle" lineHeight="125%" anchor="middle" family="微软雅黑" size="13px" weight="400" font-style="" opacity="1" y="8.875" transform="rotate(0)"><tspan id="SvgjsTspan1660" dy="16" x="50.5"><tspan id="SvgjsTspan1661" style="text-decoration:;">临时存储</tspan></tspan></text></g></g><g id="SvgjsG1662" transform="translate(551,150.5)"><path id="SvgjsPath1663" d="M 0 0L 120 0L 120 40L 0 40Z" stroke="none" fill="none"></path><g id="SvgjsG1664"><text id="SvgjsText1665" font-family="微软雅黑" text-anchor="middle" font-size="13px" width="120px" fill="#323232" font-weight="400" align="middle" lineHeight="125%" anchor="middle" family="微软雅黑" size="13px" weight="400" font-style="" opacity="1" y="9.375" transform="rotate(0)"><tspan id="SvgjsTspan1666" dy="16" x="60"><tspan id="SvgjsTspan1667" style="text-decoration:;">订阅</tspan></tspan></text></g></g><g id="SvgjsG1668" transform="translate(767.5,164)"><path id="SvgjsPath1669" d="M 0 0L 101 0L 101 39L 0 39Z" stroke="rgba(33,41,48,1)" stroke-width="2" fill-opacity="1" fill="#ffffff"></path><g id="SvgjsG1670"><text id="SvgjsText1671" font-family="微软雅黑" text-anchor="middle" font-size="13px" width="81px" fill="#323232" font-weight="400" align="middle" lineHeight="125%" anchor="middle" family="微软雅黑" size="13px" weight="400" font-style="" opacity="1" y="8.875" transform="rotate(0)"><tspan id="SvgjsTspan1672" dy="16" x="50.5"><tspan id="SvgjsTspan1673" style="text-decoration:;">BI平台</tspan></tspan></text></g></g><g id="SvgjsG1674" transform="translate(1026,164)"><path id="SvgjsPath1675" d="M 0 0L 101 0L 101 39L 0 39Z" stroke="rgba(33,41,48,1)" stroke-width="2" fill-opacity="1" fill="#ffffff"></path><g id="SvgjsG1676"><text id="SvgjsText1677" font-family="微软雅黑" text-anchor="middle" font-size="13px" width="81px" fill="#323232" font-weight="400" align="middle" lineHeight="125%" anchor="middle" family="微软雅黑" size="13px" weight="400" font-style="" opacity="1" y="8.875" transform="rotate(0)"><tspan id="SvgjsTspan1678" dy="16" x="50.5"><tspan id="SvgjsTspan1679" style="text-decoration:;">监控平台</tspan></tspan></text></g></g><g id="SvgjsG1680" transform="translate(898,222)"><path id="SvgjsPath1681" d="M 0 0L 101 0L 101 39L 0 39Z" stroke="rgba(33,41,48,1)" stroke-width="2" fill-opacity="1" fill="#ffffff"></path><g id="SvgjsG1682"><text id="SvgjsText1683" font-family="微软雅黑" text-anchor="middle" font-size="13px" width="81px" fill="#323232" font-weight="400" align="middle" lineHeight="125%" anchor="middle" family="微软雅黑" size="13px" weight="400" font-style="" opacity="1" y="8.875" transform="rotate(0)"><tspan id="SvgjsTspan1684" dy="16" x="50.5"><tspan id="SvgjsTspan1685" style="text-decoration:;">风控平台</tspan></tspan></text></g></g><g id="SvgjsG1686" transform="translate(1026,222)"><path id="SvgjsPath1687" d="M 0 0L 101 0L 101 39L 0 39Z" stroke="rgba(33,41,48,1)" stroke-width="2" fill-opacity="1" fill="#ffffff"></path><g id="SvgjsG1688"><text id="SvgjsText1689" font-family="微软雅黑" text-anchor="middle" font-size="13px" width="81px" fill="#323232" font-weight="400" align="middle" lineHeight="125%" anchor="middle" family="微软雅黑" size="13px" weight="400" font-style="" opacity="1" y="8.875" transform="rotate(0)"><tspan id="SvgjsTspan1690" dy="16" x="50.5"><tspan id="SvgjsTspan1691" style="text-decoration:;">安全平台</tspan></tspan></text></g></g><g id="SvgjsG1692"><path id="SvgjsPath1693" d="M805 508L805 479.25L805 479.25L805 453.1" stroke="#323232" stroke-width="2" fill="none" marker-end="url(#SvgjsMarker1694)"></path></g><g id="SvgjsG1696"><path id="SvgjsPath1697" d="M855.6 530L871 530L871 530L886.4 530" stroke="#323232" stroke-width="2" fill="none" marker-start="url(#SvgjsMarker1698)" marker-end="url(#SvgjsMarker1700)"></path></g><g id="SvgjsG1702"><path id="SvgjsPath1703" d="M805 404.9L805 387.75L805 387.75L805 370.6" stroke="#323232" stroke-width="2" fill="none" marker-start="url(#SvgjsMarker1704)" marker-end="url(#SvgjsMarker1706)"></path></g><g id="SvgjsG1708"><path id="SvgjsPath1709" d="M940 505.4L940 438L940 438L940 370.6" stroke="#323232" stroke-width="2" fill="none" marker-start="url(#SvgjsMarker1710)" marker-end="url(#SvgjsMarker1712)"></path></g><g id="SvgjsG1714" transform="translate(898,164)"><path id="SvgjsPath1715" d="M 0 0L 101 0L 101 39L 0 39Z" stroke="rgba(33,41,48,1)" stroke-width="2" fill-opacity="1" fill="#ffffff"></path><g id="SvgjsG1716"><text id="SvgjsText1717" font-family="微软雅黑" text-anchor="middle" font-size="13px" width="81px" fill="#323232" font-weight="400" align="middle" lineHeight="125%" anchor="middle" family="微软雅黑" size="13px" weight="400" font-style="" opacity="1" y="8.875" transform="rotate(0)"><tspan id="SvgjsTspan1718" dy="16" x="50.5"><tspan id="SvgjsTspan1719" style="text-decoration:;">链路平台</tspan></tspan></text></g></g><g id="SvgjsG1720" transform="translate(767.5,222)"><path id="SvgjsPath1721" d="M 0 0L 101 0L 101 39L 0 39Z" stroke="rgba(33,41,48,1)" stroke-width="2" fill-opacity="1" fill="#ffffff"></path><g id="SvgjsG1722"><text id="SvgjsText1723" font-family="微软雅黑" text-anchor="middle" font-size="13px" width="81px" fill="#323232" font-weight="400" align="middle" lineHeight="125%" anchor="middle" family="微软雅黑" size="13px" weight="400" font-style="" opacity="1" y="8.875" transform="rotate(0)"><tspan id="SvgjsTspan1724" dy="16" x="50.5"><tspan id="SvgjsTspan1725" style="text-decoration:;">运维平台</tspan></tspan></text></g></g><g id="SvgjsG1726" transform="translate(1060.5999908447266,387)"><path id="SvgjsPath1727" d="M 0 0L 120 0L 120 40L 0 40Z" stroke="none" fill="none"></path><g id="SvgjsG1728"><text id="SvgjsText1729" font-family="微软雅黑" text-anchor="middle" font-size="13px" width="120px" fill="#323232" font-weight="700" align="middle" lineHeight="125%" anchor="middle" family="微软雅黑" size="13px" weight="700" font-style="" opacity="1" y="9.375" transform="rotate(0)"><tspan id="SvgjsTspan1730" dy="16" x="60"><tspan id="SvgjsTspan1731" style="text-decoration:;">实时</tspan></tspan></text></g></g><g id="SvgjsG1732" transform="translate(1060.5999908447266,484)"><path id="SvgjsPath1733" d="M 0 0L 120 0L 120 40L 0 40Z" stroke="none" fill="none"></path><g id="SvgjsG1734"><text id="SvgjsText1735" font-family="微软雅黑" text-anchor="middle" font-size="13px" width="120px" fill="#323232" font-weight="700" align="middle" lineHeight="125%" anchor="middle" family="微软雅黑" size="13px" weight="700" font-style="" opacity="1" y="9.375" transform="rotate(0)"><tspan id="SvgjsTspan1736" dy="16" x="60"><tspan id="SvgjsTspan1737" style="text-decoration:;">离线</tspan></tspan></text></g></g><g id="SvgjsG1738"><path id="SvgjsPath1739" d="M663.6 469L697.5 469L697.5 429.75L731.4 429.75" stroke="#323232" stroke-width="2" fill="none" marker-start="url(#SvgjsMarker1740)" marker-end="url(#SvgjsMarker1742)"></path></g><g id="SvgjsG1744"><path id="SvgjsPath1745" d="M663.6 469L697.5 469L697.5 527.5L731.4 527.5" stroke="#323232" stroke-width="2" fill="none" marker-start="url(#SvgjsMarker1746)" marker-end="url(#SvgjsMarker1748)"></path></g><g id="SvgjsG1750" transform="translate(69.25,81)"><path id="SvgjsPath1751" d="M 0 0L 93 0L 93 39L 0 39Z" stroke="rgba(33,41,48,1)" stroke-width="2" fill-opacity="1" fill="#ffffcc"></path><g id="SvgjsG1752"><text id="SvgjsText1753" font-family="微软雅黑" text-anchor="middle" font-size="13px" width="73px" fill="#323232" font-weight="400" align="middle" lineHeight="125%" anchor="middle" family="微软雅黑" size="13px" weight="400" font-style="" opacity="1" y="8.875" transform="rotate(0)"><tspan id="SvgjsTspan1754" dy="16" x="46.5"><tspan id="SvgjsTspan1755" style="text-decoration:;">公司外部</tspan></tspan></text></g></g><g id="SvgjsG1756"><path id="SvgjsPath1757" d="M115.75 123.6L115.75 145L115.75 145L115.75 166.4" stroke="#323232" stroke-width="2" fill="none" marker-start="url(#SvgjsMarker1758)" marker-end="url(#SvgjsMarker1760)"></path></g></svg>